Jinko-Light.ufo
<glyph name="exclam" format="1">
  <advance width="449"/>
  <unicode hex="0021"/>
  <outline>
    <contour>
      <point x="224" y="-2" type="curve" smooth="yes"/>
      <point x="306" y="-2"/>
      <point x="374" y="63"/>
      <point x="374" y="146" type="curve" smooth="yes"/>
      <point x="374" y="228"/>
      <point x="306" y="294"/>
      <point x="224" y="294" type="curve" smooth="yes"/>
      <point x="142" y="294"/>
      <point x="75" y="228"/>
      <point x="75" y="146" type="curve" smooth="yes"/>
      <point x="75" y="63"/>
      <point x="142" y="-2"/>
    </contour>
    <contour>
      <point x="194" y="484" type="line"/>
      <point x="258" y="484" type="line"/>
      <point x="344" y="1481" type="line"/>
      <point x="107" y="1481" type="line"/>
    </contour>
  </outline>
</glyph>
<glyph name="quotedbl" format="1">
  <advance width="767"/>
  <unicode hex="0022"/>
  <outline>
    <contour>
      <point x="130" y="943" type="line"/>
      <point x="249" y="943" type="line"/>
      <point x="291" y="1481" type="line"/>
      <point x="89" y="1481" type="line"/>
    </contour>
    <contour>
      <point x="519" y="943" type="line"/>
      <point x="635" y="943" type="line"/>
      <point x="679" y="1481" type="line"/>
      <point x="475" y="1481" type="line"/>
    </contour>
  </outline>
</glyph>
<glyph name="numbersign" format="1">
  <advance width="1249"/>
  <unicode hex="0023"/>
  <outline>
    <contour>
      <point x="190" y="56" type="line"/>
      <point x="321" y="56" type="line"/>
      <point x="407" y="457" type="line"/>
      <point x="723" y="457" type="line"/>
      <point x="638" y="56" type="line"/>
      <point x="765" y="56" type="line"/>
      <point x="852" y="457" type="line"/>
      <point x="1150" y="457" type="line"/>
      <point x="1150" y="543" type="line"/>
      <point x="873" y="543" type="line"/>
      <point x="976" y="999" type="line"/>
      <point x="1215" y="999" type="line"/>
      <point x="1215" y="1081" type="line"/>
      <point x="998" y="1081" type="line"/>
      <point x="1069" y="1408" type="line"/>
      <point x="938" y="1408" type="line"/>
      <point x="867" y="1081" type="line"/>
      <point x="553" y="1081" type="line"/>
      <point x="624" y="1408" type="line"/>
      <point x="492" y="1408" type="line"/>
      <point x="419" y="1081" type="line"/>
      <point x="114" y="1081" type="line"/>
      <point x="114" y="999" type="line"/>
      <point x="400" y="999" type="line"/>
      <point x="296" y="543" type="line"/>
      <point x="32" y="543" type="line"/>
      <point x="32" y="457" type="line"/>
      <point x="277" y="457" type="line"/>
    </contour>
    <contour>
      <point x="428" y="542" type="line"/>
      <point x="532" y="1001" type="line"/>
      <point x="850" y="1001" type="line"/>
      <point x="746" y="542" type="line"/>
    </contour>
  </outline>
</glyph>
<glyph name="ampersand" format="1">
  <advance width="1416"/>
  <unicode hex="0026"/>
  <outline>
    <contour>
      <point x="594" y="-23" type="curve" smooth="yes"/>
      <point x="752" y="-23"/>
      <point x="917" y="13"/>
      <point x="1048" y="111" type="curve"/>
      <point x="1109" y="54"/>
      <point x="1167.0" y="0.0"/>
      <point x="1167.0" y="0.0" type="curve"/>
      <point x="1376.0" y="0.0" type="line"/>
      <point x="1376.0" y="0.0"/>
      <point x="1147" y="203"/>
      <point x="1148" y="202" type="curve"/>
      <point x="1251" y="308"/>
      <point x="1311" y="477"/>
      <point x="1325" y="648" type="curve"/>
      <point x="1191" y="663" type="line"/>
      <point x="1172" y="497"/>
      <point x="1112" y="357"/>
      <point x="1052" y="293" type="curve"/>
      <point x="580" y="772" type="line"/>
      <point x="917" y="898"/>
      <point x="1005" y="1041"/>
      <point x="1005" y="1168" type="curve"/>
      <point x="1013" y="1347"/>
      <point x="890" y="1503"/>
      <point x="609" y="1503" type="curve"/>
      <point x="257" y="1503"/>
      <point x="153" y="1338"/>
      <point x="153" y="1174" type="curve" smooth="yes"/>
      <point x="153" y="1033"/>
      <point x="266" y="896"/>
      <point x="355" y="813" type="curve"/>
      <point x="139" y="716"/>
      <point x="52" y="543"/>
      <point x="52" y="385" type="curve" smooth="yes"/>
      <point x="52" y="122"/>
      <point x="287" y="-23"/>
    </contour>
    <contour>
      <point x="613" y="116" type="curve" smooth="yes"/>
      <point x="318" y="116"/>
      <point x="205" y="239"/>
      <point x="205" y="389" type="curve" smooth="yes"/>
      <point x="205" y="545"/>
      <point x="342" y="668"/>
      <point x="438" y="715" type="curve"/>
      <point x="944" y="205" type="line"/>
      <point x="837" y="142"/>
      <point x="766" y="116"/>
    </contour>
    <contour>
      <point x="489" y="868" type="curve"/>
      <point x="357" y="1013"/>
      <point x="309" y="1083"/>
      <point x="309" y="1170" type="curve"/>
      <point x="316" y="1297"/>
      <point x="392" y="1375"/>
      <point x="586" y="1382" type="curve"/>
      <point x="816" y="1382"/>
      <point x="862.0" y="1273.0"/>
      <point x="862.0" y="1170.0" type="curve" smooth="yes"/>
      <point x="862.0" y="1061.0"/>
      <point x="749" y="951"/>
    </contour>
  </outline>
</glyph>
<glyph name="parenleft" format="1">
  <advance width="478"/>
  <unicode hex="0028"/>
  <outline>
    <contour>
      <point x="346" y="-311" type="curve"/>
      <point x="483" y="-311" type="line"/>
      <point x="483" y="-311"/>
      <point x="483" y="-253"/>
      <point x="483" y="-253" type="curve"/>
      <point x="330" y="-77"/>
      <point x="162" y="198"/>
      <point x="162" y="549" type="curve" smooth="yes"/>
      <point x="162" y="888"/>
      <point x="310" y="1146"/>
      <point x="481" y="1335" type="curve"/>
      <point x="481" y="1335"/>
      <point x="481" y="1391"/>
      <point x="481" y="1391" type="curve"/>
      <point x="346" y="1391" type="line"/>
      <point x="141" y="1158"/>
      <point x="3" y="887"/>
      <point x="3" y="553" type="curve" smooth="yes"/>
      <point x="3" y="175"/>
      <point x="139" y="-78"/>
    </contour>
  </outline>
</glyph>
<glyph name="parenright" format="1">
  <advance width="521"/>
  <unicode hex="0029"/>
  <outline>
    <contour>
      <point x="-5.0" y="-311.0" type="curve"/>
      <point x="180.0" y="-311.0" type="line"/>
      <point x="385.0" y="-78.0"/>
      <point x="519.0" y="194.0"/>
      <point x="519.0" y="539.0" type="curve" smooth="yes"/>
      <point x="519.0" y="909.0"/>
      <point x="385.0" y="1158.0"/>
      <point x="180.0" y="1391.0" type="curve"/>
      <point x="-4.0" y="1391.0" type="line"/>
      <point x="-4.0" y="1391.0"/>
      <point x="-4.0" y="1335.0"/>
      <point x="-4.0" y="1335.0" type="curve"/>
      <point x="154.0" y="1157.0"/>
      <point x="318.0" y="886.0"/>
      <point x="318.0" y="539.0" type="curve" smooth="yes"/>
      <point x="318.0" y="198.0"/>
      <point x="163" y="-67"/>
      <point x="-5" y="-253" type="curve"/>
      <point x="-5" y="-253"/>
      <point x="-5.0" y="-311.0"/>
    </contour>
  </outline>
</glyph>
<glyph name="comma" format="1">
  <advance width="395"/>
  <unicode hex="002C"/>
  <outline>
    <contour>
      <point x="103" y="-228" type="line"/>
      <point x="209" y="-228" type="line"/>
      <point x="322" y="281" type="line"/>
      <point x="132" y="281" type="line"/>
    </contour>
  </outline>
</glyph>
<glyph name="hyphen" format="1">
  <advance width="789"/>
  <unicode hex="002D"/>
  <outline>
    <contour>
      <point x="99" y="595" type="line"/>
      <point x="690" y="595" type="line"/>
      <point x="690" y="714" type="line"/>
      <point x="99" y="714" type="line"/>
    </contour>
  </outline>
</glyph>
<glyph name="period" format="1">
  <advance width="483"/>
  <unicode hex="002E"/>
  <outline>
    <contour>
      <point x="246" y="0" type="curve" smooth="yes"/>
      <point x="326" y="0"/>
      <point x="390" y="63"/>
      <point x="390" y="144" type="curve" smooth="yes"/>
      <point x="390" y="223"/>
      <point x="326" y="288"/>
      <point x="246" y="288" type="curve" smooth="yes"/>
      <point x="165" y="288"/>
      <point x="99" y="223"/>
      <point x="99" y="144" type="curve" smooth="yes"/>
      <point x="99" y="63"/>
      <point x="165" y="0"/>
    </contour>
  </outline>
</glyph>
<glyph name="zero" format="1">
  <advance width="1316"/>
  <unicode hex="0030"/>
  <outline>
    <contour>
      <point x="666" y="115" type="curve" smooth="yes"/>
      <point x="328" y="115"/>
      <point x="297" y="391"/>
      <point x="297" y="731" type="curve" smooth="yes"/>
      <point x="297" y="1078"/>
      <point x="338" y="1365"/>
      <point x="666" y="1365" type="curve" smooth="yes"/>
      <point x="992" y="1365"/>
      <point x="1035" y="1071"/>
      <point x="1035" y="731" type="curve" smooth="yes"/>
      <point x="1035" y="407"/>
      <point x="1004" y="115"/>
    </contour>
    <contour>
      <point x="666" y="-23" type="curve" smooth="yes"/>
      <point x="1095" y="-23"/>
      <point x="1214" y="262"/>
      <point x="1214" y="736" type="curve" smooth="yes"/>
      <point x="1214" y="1218"/>
      <point x="1079" y="1503"/>
      <point x="666" y="1503" type="curve" smooth="yes"/>
      <point x="242" y="1503"/>
      <point x="116" y="1212"/>
      <point x="116" y="724" type="curve" smooth="yes"/>
      <point x="116" y="255"/>
      <point x="251" y="-23"/>
    </contour>
  </outline>
</glyph>
<glyph name="one" format="1">
  <advance width="953"/>
  <unicode hex="0031"/>
  <outline>
    <contour>
      <point x="164" y="0" type="line"/>
      <point x="893" y="0" type="line"/>
      <point x="893" y="133" type="line"/>
      <point x="619" y="133" type="line"/>
      <point x="619" y="1481" type="line"/>
      <point x="461" y="1481" type="line"/>
      <point x="430" y="1410"/>
      <point x="377" y="1361"/>
      <point x="164" y="1318" type="curve"/>
      <point x="164" y="1194" type="line"/>
      <point x="442" y="1267" type="line"/>
      <point x="442" y="133" type="line"/>
      <point x="164" y="133" type="line"/>
    </contour>
  </outline>
</glyph>
<glyph name="two" format="1">
  <advance width="1174"/>
  <unicode hex="0032"/>
  <outline>
    <contour>
      <point x="114" y="0" type="line"/>
      <point x="1055" y="0" type="line"/>
      <point x="1055" y="133" type="line"/>
      <point x="306" y="133" type="line"/>
      <point x="785" y="566"/>
      <point x="1066" y="824"/>
      <point x="1066" y="1117" type="curve" smooth="yes"/>
      <point x="1066" y="1355"/>
      <point x="904" y="1503"/>
      <point x="593" y="1503" type="curve" smooth="yes"/>
      <point x="428" y="1503"/>
      <point x="212" y="1437"/>
      <point x="137" y="1371" type="curve"/>
      <point x="173" y="1240" type="line"/>
      <point x="189" y="1256"/>
      <point x="365" y="1371"/>
      <point x="576" y="1371" type="curve" smooth="yes"/>
      <point x="836" y="1371"/>
      <point x="883" y="1231"/>
      <point x="888" y="1090" type="curve"/>
      <point x="888" y="858"/>
      <point x="550" y="560"/>
      <point x="114" y="154" type="curve"/>
    </contour>
  </outline>
</glyph>
<glyph name="three" format="1">
  <advance width="1164"/>
  <unicode hex="0033"/>
  <outline>
    <contour>
      <point x="542" y="-23" type="curve" smooth="yes"/>
      <point x="874" y="-23"/>
      <point x="1079" y="105"/>
      <point x="1079" y="404" type="curve" smooth="yes"/>
      <point x="1079" y="611"/>
      <point x="936" y="757"/>
      <point x="743" y="798" type="curve"/>
      <point x="898" y="834"/>
      <point x="1025" y="939"/>
      <point x="1025" y="1135" type="curve" smooth="yes"/>
      <point x="1025" y="1317"/>
      <point x="899" y="1504"/>
      <point x="548" y="1504" type="curve" smooth="yes"/>
      <point x="369" y="1504"/>
      <point x="229" y="1468"/>
      <point x="132" y="1400" type="curve"/>
      <point x="132" y="1284" type="line"/>
      <point x="181" y="1284" type="line"/>
      <point x="181" y="1284"/>
      <point x="267" y="1371"/>
      <point x="546" y="1371" type="curve" smooth="yes"/>
      <point x="771" y="1371"/>
      <point x="850" y="1263"/>
      <point x="850" y="1113" type="curve" smooth="yes"/>
      <point x="850" y="978"/>
      <point x="781" y="853"/>
      <point x="503" y="853" type="curve" smooth="yes"/>
      <point x="358" y="853" type="line"/>
      <point x="358" y="732" type="line"/>
      <point x="515" y="732" type="line" smooth="yes"/>
      <point x="795" y="732"/>
      <point x="910" y="594"/>
      <point x="910" y="395" type="curve" smooth="yes"/>
      <point x="910" y="172"/>
      <point x="750" y="111"/>
      <point x="553" y="111" type="curve" smooth="yes"/>
      <point x="377" y="111"/>
      <point x="223" y="172"/>
      <point x="175" y="214" type="curve"/>
      <point x="132" y="214" type="line"/>
      <point x="132" y="87" type="line"/>
      <point x="175" y="56"/>
      <point x="321" y="-23"/>
    </contour>
  </outline>
</glyph>
<glyph name="four" format="1">
  <advance width="1189"/>
  <unicode hex="0034"/>
  <outline>
    <contour>
      <point x="788" y="0" type="line"/>
      <point x="966" y="0" type="line"/>
      <point x="966" y="291" type="line"/>
      <point x="1131" y="291" type="line"/>
      <point x="1131" y="423" type="line"/>
      <point x="966" y="423" type="line"/>
      <point x="966" y="1481" type="line"/>
      <point x="723" y="1481" type="line"/>
      <point x="71" y="432" type="line"/>
      <point x="71" y="291" type="line"/>
      <point x="788" y="291" type="line"/>
    </contour>
    <contour>
      <point x="246" y="423" type="line"/>
      <point x="788" y="1330" type="line"/>
      <point x="788" y="423" type="line"/>
    </contour>
  </outline>
</glyph>
<glyph name="five" format="1">
  <advance width="1217"/>
  <unicode hex="0035"/>
  <outline>
    <contour>
      <point x="593" y="-23" type="curve" smooth="yes"/>
      <point x="927" y="-23"/>
      <point x="1122" y="126"/>
      <point x="1122" y="419" type="curve" smooth="yes"/>
      <point x="1122" y="725"/>
      <point x="870" y="885"/>
      <point x="463" y="906" type="curve" smooth="yes"/>
      <point x="432" y="908"/>
      <point x="340" y="914"/>
      <point x="340" y="915" type="curve" smooth="yes"/>
      <point x="340" y="1348" type="line"/>
      <point x="989" y="1348" type="line"/>
      <point x="989" y="1481" type="line"/>
      <point x="184" y="1481" type="line"/>
      <point x="184" y="797" type="line"/>
      <point x="184" y="797"/>
      <point x="360" y="781"/>
      <point x="383" y="779" type="curve" smooth="yes"/>
      <point x="870" y="743"/>
      <point x="946" y="584"/>
      <point x="946" y="398" type="curve" smooth="yes"/>
      <point x="946" y="252"/>
      <point x="857" y="110"/>
      <point x="575" y="110" type="curve" smooth="yes"/>
      <point x="285" y="110"/>
      <point x="204" y="213"/>
      <point x="194" y="213" type="curve" smooth="yes"/>
      <point x="144" y="213" type="line"/>
      <point x="144" y="77" type="line"/>
      <point x="243" y="21"/>
      <point x="388" y="-23"/>
    </contour>
  </outline>
</glyph>
<glyph name="six" format="1">
  <advance width="1236"/>
  <unicode hex="0036"/>
  <outline>
    <contour>
      <point x="631" y="-23" type="curve" smooth="yes"/>
      <point x="921" y="-23"/>
      <point x="1126" y="164"/>
      <point x="1126" y="452" type="curve" smooth="yes"/>
      <point x="1126" y="732"/>
      <point x="899" y="888"/>
      <point x="666" y="888" type="curve" smooth="yes"/>
      <point x="579" y="888"/>
      <point x="375" y="854"/>
      <point x="299" y="704" type="curve"/>
      <point x="355" y="1029"/>
      <point x="563" y="1352"/>
      <point x="915" y="1352" type="curve"/>
      <point x="915" y="1352"/>
      <point x="887" y="1481"/>
      <point x="882" y="1481" type="curve" smooth="yes"/>
      <point x="392" y="1481"/>
      <point x="123" y="984"/>
      <point x="123" y="535" type="curve" smooth="yes"/>
      <point x="123" y="187"/>
      <point x="332" y="-23"/>
    </contour>
    <contour>
      <point x="615" y="110" type="curve" smooth="yes"/>
      <point x="418" y="110"/>
      <point x="310" y="272"/>
      <point x="310" y="421" type="curve" smooth="yes"/>
      <point x="310" y="599"/>
      <point x="404" y="755"/>
      <point x="648" y="755" type="curve" smooth="yes"/>
      <point x="855" y="755"/>
      <point x="954" y="598"/>
      <point x="954" y="454" type="curve" smooth="yes"/>
      <point x="954" y="274"/>
      <point x="875" y="110"/>
    </contour>
  </outline>
</glyph>
<glyph name="seven" format="1">
  <advance width="1118"/>
  <unicode hex="0037"/>
  <outline>
    <contour>
      <point x="310" y="0" type="line"/>
      <point x="488" y="0" type="line"/>
      <point x="1019" y="1353" type="line"/>
      <point x="1019" y="1481" type="line"/>
      <point x="116" y="1481" type="line"/>
      <point x="116" y="1152" type="line"/>
      <point x="280" y="1152" type="line"/>
      <point x="280" y="1348" type="line"/>
      <point x="844" y="1348" type="line"/>
    </contour>
  </outline>
</glyph>
<glyph name="eight" format="1">
  <advance width="1252"/>
  <unicode hex="0038"/>
  <outline>
    <contour>
      <point x="626" y="-23" type="curve" smooth="yes"/>
      <point x="958" y="-23"/>
      <point x="1156" y="161"/>
      <point x="1156" y="419" type="curve" smooth="yes"/>
      <point x="1156" y="583"/>
      <point x="1002" y="701"/>
      <point x="841" y="780" type="curve"/>
      <point x="1048.0" y="900.0"/>
      <point x="1119" y="1020"/>
      <point x="1119" y="1179" type="curve"/>
      <point x="1119" y="1364"/>
      <point x="932" y="1500"/>
      <point x="628" y="1500" type="curve" smooth="yes"/>
      <point x="340" y="1500"/>
      <point x="139" y="1355"/>
      <point x="139" y="1171" type="curve" smooth="yes"/>
      <point x="139" y="1043"/>
      <point x="221" y="926"/>
      <point x="475" y="795" type="curve"/>
      <point x="314" y="713"/>
      <point x="96" y="581"/>
      <point x="96" y="356" type="curve" smooth="yes"/>
      <point x="96" y="166"/>
      <point x="294" y="-23"/>
    </contour>
    <contour>
      <point x="635" y="115" type="curve" smooth="yes"/>
      <point x="381" y="115"/>
      <point x="266" y="203"/>
      <point x="266" y="366" type="curve" smooth="yes"/>
      <point x="266" y="552"/>
      <point x="501" y="690"/>
      <point x="576" y="729" type="curve"/>
      <point x="849" y="627"/>
      <point x="976" y="509"/>
      <point x="976" y="378" type="curve" smooth="yes"/>
      <point x="976" y="270"/>
      <point x="908" y="115"/>
    </contour>
    <contour>
      <point x="740" y="834" type="curve"/>
      <point x="580" y="891"/>
      <point x="320" y="1043"/>
      <point x="320" y="1166" type="curve" smooth="yes"/>
      <point x="320" y="1357"/>
      <point x="553" y="1367"/>
      <point x="642" y="1367" type="curve" smooth="yes"/>
      <point x="815" y="1367"/>
      <point x="959" y="1306"/>
      <point x="959" y="1175" type="curve" smooth="yes"/>
      <point x="959" y="991"/>
      <point x="783" y="872"/>
    </contour>
  </outline>
</glyph>
<glyph name="nine" format="1">
  <advance width="1221"/>
  <unicode hex="0039"/>
  <outline>
    <contour>
      <point x="351" y="-23" type="curve" smooth="yes"/>
      <point x="841" y="-23"/>
      <point x="1114" y="441"/>
      <point x="1114" y="923" type="curve" smooth="yes"/>
      <point x="1114" y="1271"/>
      <point x="905" y="1481"/>
      <point x="606" y="1481" type="curve" smooth="yes"/>
      <point x="316" y="1481"/>
      <point x="112" y="1293"/>
      <point x="112" y="1005" type="curve" smooth="yes"/>
      <point x="112" y="725"/>
      <point x="340" y="570"/>
      <point x="573" y="570" type="curve" smooth="yes"/>
      <point x="660" y="570"/>
      <point x="862" y="603"/>
      <point x="938" y="753" type="curve"/>
      <point x="903" y="428"/>
      <point x="675" y="101"/>
      <point x="323" y="101" type="curve"/>
      <point x="323" y="101"/>
      <point x="346" y="-23"/>
    </contour>
    <contour>
      <point x="590" y="703" type="curve" smooth="yes"/>
      <point x="383" y="703"/>
      <point x="285" y="859"/>
      <point x="285" y="1003" type="curve" smooth="yes"/>
      <point x="285" y="1183"/>
      <point x="363" y="1348"/>
      <point x="623" y="1348" type="curve" smooth="yes"/>
      <point x="820" y="1348"/>
      <point x="927" y="1185"/>
      <point x="927" y="1036" type="curve" smooth="yes"/>
      <point x="927" y="858"/>
      <point x="834" y="703"/>
    </contour>
  </outline>
</glyph>
<glyph name="semicolon" format="1">
  <advance width="451"/>
  <unicode hex="003B"/>
  <outline>
    <contour>
      <point x="122" y="-228" type="line"/>
      <point x="228" y="-228" type="line"/>
      <point x="341" y="281" type="line"/>
      <point x="151" y="281" type="line"/>
    </contour>
    <contour>
      <point x="240" y="735" type="curve" smooth="yes"/>
      <point x="322" y="735"/>
      <point x="389" y="801"/>
      <point x="389" y="884" type="curve" smooth="yes"/>
      <point x="389" y="966"/>
      <point x="322" y="1032"/>
      <point x="240" y="1032" type="curve" smooth="yes"/>
      <point x="157" y="1032"/>
      <point x="90" y="966"/>
      <point x="90" y="884" type="curve" smooth="yes"/>
      <point x="90" y="801"/>
      <point x="157" y="735"/>
    </contour>
  </outline>
</glyph>
<glyph name="equal" format="1">
  <advance width="1200"/>
  <unicode hex="003D"/>
  <outline>
    <contour>
      <point x="99" y="344" type="line"/>
      <point x="1101" y="344" type="line"/>
      <point x="1101" y="461" type="line"/>
      <point x="99" y="461" type="line"/>
    </contour>
    <contour>
      <point x="99" y="800" type="line"/>
      <point x="1101" y="800" type="line"/>
      <point x="1101" y="918" type="line"/>
      <point x="99" y="918" type="line"/>
    </contour>
  </outline>
</glyph>
<glyph name="question" format="1">
  <advance width="903"/>
  <unicode hex="003F"/>
  <outline>
    <contour>
      <point x="362" y="456" type="line"/>
      <point x="559" y="652"/>
      <point x="831.0" y="921.745229875"/>
      <point x="831" y="1177" type="curve" smooth="yes"/>
      <point x="831" y="1348"/>
      <point x="720" y="1503"/>
      <point x="461" y="1503" type="curve" smooth="yes"/>
      <point x="282" y="1503"/>
      <point x="133" y="1420"/>
      <point x="73" y="1384" type="curve"/>
      <point x="73" y="1244" type="line"/>
      <point x="173" y="1309"/>
      <point x="314" y="1367"/>
      <point x="445" y="1367" type="curve" smooth="yes"/>
      <point x="618" y="1367"/>
      <point x="677" y="1271"/>
      <point x="677" y="1162" type="curve" smooth="yes"/>
      <point x="677.0" y="992.69968879"/>
      <point x="455" y="705"/>
      <point x="304" y="496" type="curve"/>
    </contour>
    <contour>
      <point x="349" y="-2" type="curve" smooth="yes"/>
      <point x="429" y="-2"/>
      <point x="491" y="61"/>
      <point x="491" y="141" type="curve" smooth="yes"/>
      <point x="491" y="221"/>
      <point x="429" y="286"/>
      <point x="349" y="286" type="curve" smooth="yes"/>
      <point x="269" y="286"/>
      <point x="204" y="221"/>
      <point x="204" y="141" type="curve" smooth="yes"/>
      <point x="204" y="61"/>
      <point x="269" y="-2"/>
    </contour>
  </outline>
</glyph>
<glyph name="at" format="1">
  <advance width="1689"/>
  <unicode hex="0040"/>
  <outline>
    <contour>
      <point x="838" y="-119" type="curve" smooth="yes"/>
      <point x="984" y="-119"/>
      <point x="1155" y="-82"/>
      <point x="1281" y="-1" type="curve"/>
      <point x="1238" y="91" type="line"/>
      <point x="1114" y="23"/>
      <point x="987" y="-10"/>
      <point x="839" y="-10" type="curve" smooth="yes"/>
      <point x="492" y="-10"/>
      <point x="230" y="191"/>
      <point x="230" y="607" type="curve" smooth="yes"/>
      <point x="230" y="944"/>
      <point x="441" y="1259"/>
      <point x="876" y="1259" type="curve" smooth="yes"/>
      <point x="1288" y="1259"/>
      <point x="1490" y="981"/>
      <point x="1490" y="662" type="curve" smooth="yes"/>
      <point x="1490" y="410"/>
      <point x="1385" y="252"/>
      <point x="1265" y="252" type="curve" smooth="yes"/>
      <point x="1208" y="252"/>
      <point x="1138" y="268"/>
      <point x="1138" y="409" type="curve" smooth="yes"/>
      <point x="1138" y="426"/>
      <point x="1139" y="446"/>
      <point x="1142" y="469" type="curve" smooth="yes"/>
      <point x="1203" y="1013" type="line"/>
      <point x="1103" y="1013" type="line"/>
      <point x="1082" y="917" type="line"/>
      <point x="1046" y="967"/>
      <point x="952" y="1045"/>
      <point x="815" y="1045" type="curve" smooth="yes"/>
      <point x="562" y="1045"/>
      <point x="419" y="842"/>
      <point x="419" y="588" type="curve" smooth="yes"/>
      <point x="419" y="381"/>
      <point x="528" y="193"/>
      <point x="767" y="193" type="curve" smooth="yes"/>
      <point x="864" y="193"/>
      <point x="989" y="226"/>
      <point x="1043" y="324" type="curve"/>
      <point x="1060" y="245"/>
      <point x="1143" y="170"/>
      <point x="1257" y="170" type="curve" smooth="yes"/>
      <point x="1460" y="170"/>
      <point x="1603" y="387"/>
      <point x="1603" y="680" type="curve" smooth="yes"/>
      <point x="1603" y="1075"/>
      <point x="1301" y="1362"/>
      <point x="872" y="1362" type="curve" smooth="yes"/>
      <point x="418" y="1362"/>
      <point x="86" y="1047"/>
      <point x="86" y="608" type="curve" smooth="yes"/>
      <point x="86" y="175"/>
      <point x="374" y="-119"/>
    </contour>
    <contour>
      <point x="792" y="277" type="curve" smooth="yes"/>
      <point x="610" y="277"/>
      <point x="556" y="432"/>
      <point x="556" y="588" type="curve" smooth="yes"/>
      <point x="556" y="852"/>
      <point x="673" y="950"/>
      <point x="833" y="950" type="curve" smooth="yes"/>
      <point x="949" y="950"/>
      <point x="1027" y="892"/>
      <point x="1067" y="836" type="curve"/>
      <point x="1017" y="384" type="line"/>
      <point x="1011" y="367"/>
      <point x="933" y="277"/>
    </contour>
  </outline>
</glyph>
<glyph name="A" format="1">
  <advance width="1301"/>
  <unicode hex="0041"/>
  <outline>
    <contour>
      <point x="24" y="0" type="line"/>
      <point x="203" y="0" type="line"/>
      <point x="337" y="400" type="line"/>
      <point x="966" y="400" type="line"/>
      <point x="1097" y="0" type="line"/>
      <point x="1277" y="0" type="line"/>
      <point x="757" y="1481" type="line"/>
      <point x="525" y="1481" type="line"/>
    </contour>
    <contour>
      <point x="381" y="532" type="line"/>
      <point x="642" y="1354" type="line"/>
      <point x="917" y="532" type="line"/>
    </contour>
  </outline>
</glyph>
<glyph name="B" format="1">
  <advance width="1270"/>
  <unicode hex="0042"/>
  <outline>
    <contour>
      <point x="134" y="0" type="line"/>
      <point x="631" y="0" type="line" smooth="yes"/>
      <point x="970" y="0"/>
      <point x="1197" y="129"/>
      <point x="1197" y="451" type="curve" smooth="yes"/>
      <point x="1197" y="633"/>
      <point x="1059" y="788"/>
      <point x="859" y="813" type="curve"/>
      <point x="859" y="820" type="line"/>
      <point x="1013" y="860"/>
      <point x="1096" y="985"/>
      <point x="1096" y="1107" type="curve" smooth="yes"/>
      <point x="1096" y="1391"/>
      <point x="899" y="1481"/>
      <point x="555" y="1481" type="curve" smooth="yes"/>
      <point x="134" y="1481" type="line"/>
    </contour>
    <contour>
      <point x="312" y="133" type="line"/>
      <point x="312" y="731" type="line"/>
      <point x="666" y="731" type="line" smooth="yes"/>
      <point x="850" y="731"/>
      <point x="1019" y="616"/>
      <point x="1019" y="451" type="curve" smooth="yes"/>
      <point x="1019" y="328"/>
      <point x="987" y="133"/>
      <point x="662" y="133" type="curve" smooth="yes"/>
    </contour>
    <contour>
      <point x="312" y="856" type="line"/>
      <point x="312" y="1348" type="line"/>
      <point x="604" y="1348" type="line" smooth="yes"/>
      <point x="812" y="1348"/>
      <point x="918" y="1248"/>
      <point x="918" y="1113" type="curve" smooth="yes"/>
      <point x="918" y="971"/>
      <point x="828" y="856"/>
      <point x="607" y="856" type="curve" smooth="yes"/>
    </contour>
  </outline>
</glyph>
<glyph name="C" format="1">
  <advance width="1224"/>
  <unicode hex="0043"/>
  <outline>
    <contour>
      <point x="735" y="-23" type="curve" smooth="yes"/>
      <point x="934" y="-23"/>
      <point x="1079" y="39"/>
      <point x="1156" y="105" type="curve"/>
      <point x="1124" y="230" type="line"/>
      <point x="1124" y="230"/>
      <point x="977" y="115"/>
      <point x="740" y="115" type="curve" smooth="yes"/>
      <point x="449" y="115"/>
      <point x="268" y="280"/>
      <point x="268" y="743" type="curve" smooth="yes"/>
      <point x="268" y="1205"/>
      <point x="472" y="1367"/>
      <point x="740" y="1367" type="curve" smooth="yes"/>
      <point x="993" y="1367"/>
      <point x="1117" y="1259"/>
      <point x="1117" y="1259" type="curve"/>
      <point x="1158" y="1384" type="line"/>
      <point x="1100" y="1432"/>
      <point x="937" y="1504"/>
      <point x="742" y="1504" type="curve" smooth="yes"/>
      <point x="347" y="1504"/>
      <point x="95" y="1239"/>
      <point x="95" y="746" type="curve" smooth="yes"/>
      <point x="95" y="257"/>
      <point x="277" y="-23"/>
    </contour>
  </outline>
</glyph>
<glyph name="D" format="1">
  <advance width="1414"/>
  <unicode hex="0044"/>
  <outline>
    <contour>
      <point x="312" y="133" type="line"/>
      <point x="312" y="1345" type="line"/>
      <point x="576" y="1345" type="line" smooth="yes"/>
      <point x="944" y="1345"/>
      <point x="1140" y="1135"/>
      <point x="1140" y="740" type="curve" smooth="yes"/>
      <point x="1140" y="323"/>
      <point x="956" y="133"/>
      <point x="572" y="133" type="curve" smooth="yes"/>
    </contour>
    <contour>
      <point x="134" y="0" type="line"/>
      <point x="546" y="0" type="line" smooth="yes"/>
      <point x="1069" y="0"/>
      <point x="1317" y="244"/>
      <point x="1317" y="740" type="curve" smooth="yes"/>
      <point x="1317" y="1245"/>
      <point x="1032" y="1481"/>
      <point x="551" y="1481" type="curve" smooth="yes"/>
      <point x="134" y="1481" type="line"/>
    </contour>
  </outline>
</glyph>
<glyph name="E" format="1">
  <advance width="1050"/>
  <unicode hex="0045"/>
  <outline>
    <contour>
      <point x="134" y="0" type="line"/>
      <point x="974" y="0" type="line"/>
      <point x="974" y="133" type="line"/>
      <point x="312" y="133" type="line"/>
      <point x="312" y="717" type="line"/>
      <point x="888" y="717" type="line"/>
      <point x="888" y="849" type="line"/>
      <point x="312" y="849" type="line"/>
      <point x="312" y="1348" type="line"/>
      <point x="952" y="1348" type="line"/>
      <point x="952" y="1481" type="line"/>
      <point x="134" y="1481" type="line"/>
    </contour>
  </outline>
</glyph>
<glyph name="F" format="1">
  <advance width="988"/>
  <unicode hex="0046"/>
  <outline>
    <contour>
      <point x="134" y="0" type="line"/>
      <point x="312" y="0" type="line"/>
      <point x="312" y="719" type="line"/>
      <point x="901" y="719" type="line"/>
      <point x="901" y="854" type="line"/>
      <point x="312" y="854" type="line"/>
      <point x="312" y="1346" type="line"/>
      <point x="959" y="1346" type="line"/>
      <point x="959" y="1481" type="line"/>
      <point x="134" y="1481" type="line"/>
    </contour>
  </outline>
</glyph>
<glyph name="G" format="1">
  <advance width="1412.0"/>
  <unicode hex="0047"/>
  <outline>
    <contour>
      <point x="775" y="-23" type="curve" smooth="yes"/>
      <point x="1064" y="-23"/>
      <point x="1242" y="75"/>
      <point x="1288" y="106" type="curve"/>
      <point x="1288" y="804" type="line"/>
      <point x="731" y="804" type="line"/>
      <point x="731" y="668" type="line"/>
      <point x="1134" y="668" type="line"/>
      <point x="1134" y="182" type="line"/>
      <point x="1135" y="181"/>
      <point x="1016" y="115"/>
      <point x="796" y="115" type="curve" smooth="yes"/>
      <point x="431" y="115"/>
      <point x="272" y="310"/>
      <point x="272" y="746" type="curve" smooth="yes"/>
      <point x="272" y="1181"/>
      <point x="487" y="1368"/>
      <point x="806" y="1368" type="curve" smooth="yes"/>
      <point x="1017" y="1368"/>
      <point x="1207.0" y="1267.0"/>
      <point x="1207.0" y="1264.0" type="curve"/>
      <point x="1247" y="1397" type="line"/>
      <point x="1158" y="1441"/>
      <point x="994" y="1503"/>
      <point x="797" y="1503" type="curve" smooth="yes"/>
      <point x="355" y="1503"/>
      <point x="95" y="1239"/>
      <point x="95" y="746" type="curve" smooth="yes"/>
      <point x="95" y="274"/>
      <point x="287" y="-23"/>
    </contour>
  </outline>
</glyph>
<glyph name="H" format="1">
  <advance width="1387"/>
  <unicode hex="0048"/>
  <outline>
    <contour>
      <point x="134" y="0" type="line"/>
      <point x="312" y="0" type="line"/>
      <point x="312" y="699" type="line"/>
      <point x="1075" y="699" type="line"/>
      <point x="1075" y="0" type="line"/>
      <point x="1253" y="0" type="line"/>
      <point x="1253" y="1481" type="line"/>
      <point x="1075" y="1481" type="line"/>
      <point x="1075" y="828" type="line"/>
      <point x="312" y="828" type="line"/>
      <point x="312" y="1481" type="line"/>
      <point x="134" y="1481" type="line"/>
    </contour>
  </outline>
</glyph>
<glyph name="I" format="1">
  <advance width="828"/>
  <unicode hex="0049"/>
  <outline>
    <contour>
      <point x="100" y="0" type="line"/>
      <point x="730" y="0" type="line"/>
      <point x="730" y="120" type="line"/>
      <point x="504" y="120" type="line"/>
      <point x="504" y="1359" type="line"/>
      <point x="730" y="1359" type="line"/>
      <point x="730" y="1481" type="line"/>
      <point x="100" y="1481" type="line"/>
      <point x="100" y="1359" type="line"/>
      <point x="326" y="1359" type="line"/>
      <point x="326" y="120" type="line"/>
      <point x="100" y="120" type="line"/>
    </contour>
  </outline>
</glyph>
<glyph name="J" format="1">
  <advance width="881"/>
  <unicode hex="004A"/>
  <outline>
    <contour>
      <point x="380" y="-19" type="curve" smooth="yes"/>
      <point x="646" y="-19"/>
      <point x="749" y="133"/>
      <point x="749" y="431" type="curve" smooth="yes"/>
      <point x="749" y="1481" type="line"/>
      <point x="335" y="1481" type="line"/>
      <point x="335" y="1348" type="line"/>
      <point x="571" y="1348" type="line"/>
      <point x="571" y="429" type="line" smooth="yes"/>
      <point x="571" y="187"/>
      <point x="494" y="115"/>
      <point x="354" y="115" type="curve" smooth="yes"/>
      <point x="248" y="115"/>
      <point x="129" y="180"/>
      <point x="129" y="180" type="curve"/>
      <point x="98" y="54" type="line"/>
      <point x="98" y="54"/>
      <point x="228" y="-19"/>
    </contour>
  </outline>
</glyph>
<glyph name="K" format="1">
  <advance width="1248"/>
  <unicode hex="004B"/>
  <outline>
    <contour>
      <point x="134" y="0" type="line"/>
      <point x="312" y="0" type="line"/>
      <point x="312" y="496" type="line"/>
      <point x="575" y="776" type="line"/>
      <point x="642" y="666" type="line"/>
      <point x="733" y="513"/>
      <point x="1036" y="0"/>
      <point x="1036" y="0" type="curve"/>
      <point x="1240" y="0" type="line"/>
      <point x="698" y="894" type="line"/>
      <point x="1213" y="1481" type="line"/>
      <point x="981" y="1481" type="line" smooth="yes"/>
      <point x="981" y="1481"/>
      <point x="620" y="1047"/>
      <point x="600" y="1029" type="curve"/>
      <point x="313" y="704" type="line"/>
      <point x="312" y="704" type="line"/>
      <point x="312" y="1481" type="line"/>
      <point x="134" y="1481" type="line"/>
    </contour>
  </outline>
</glyph>
<glyph name="L" format="1">
  <advance width="1018"/>
  <unicode hex="004C"/>
  <outline>
    <contour>
      <point x="134" y="0" type="line"/>
      <point x="981" y="0" type="line"/>
      <point x="981" y="133" type="line"/>
      <point x="312" y="133" type="line"/>
      <point x="312" y="1481" type="line"/>
      <point x="134" y="1481" type="line"/>
    </contour>
  </outline>
</glyph>
<glyph name="M" format="1">
  <advance width="1569"/>
  <unicode hex="004D"/>
  <outline>
    <contour>
      <point x="134" y="0" type="line"/>
      <point x="312" y="0" type="line"/>
      <point x="312" y="963" type="line"/>
      <point x="305" y="1180" type="line"/>
      <point x="720" y="453" type="line"/>
      <point x="861" y="453" type="line"/>
      <point x="1265" y="1180" type="line"/>
      <point x="1257" y="963" type="line"/>
      <point x="1257" y="0" type="line"/>
      <point x="1435" y="0" type="line"/>
      <point x="1435" y="1481" type="line"/>
      <point x="1265" y="1481" type="line"/>
      <point x="789" y="633" type="line"/>
      <point x="311" y="1481" type="line"/>
      <point x="134" y="1481" type="line"/>
    </contour>
  </outline>
</glyph>
<glyph name="N" format="1">
  <advance width="1495"/>
  <unicode hex="004E"/>
  <outline>
    <contour>
      <point x="134" y="0" type="line"/>
      <point x="311" y="0" type="line"/>
      <point x="311" y="986" type="line"/>
      <point x="305" y="1185" type="line"/>
      <point x="1205" y="0" type="line"/>
      <point x="1361" y="0" type="line"/>
      <point x="1361" y="1481" type="line"/>
      <point x="1184" y="1481" type="line"/>
      <point x="1184" y="533" type="line"/>
      <point x="1190" y="275" type="line"/>
      <point x="273" y="1481" type="line"/>
      <point x="134" y="1481" type="line"/>
    </contour>
  </outline>
</glyph>
<glyph name="O" format="1">
  <advance width="1554"/>
  <unicode hex="004F"/>
  <outline>
    <contour>
      <point x="777" y="115" type="curve" smooth="yes"/>
      <point x="377" y="115"/>
      <point x="273" y="421"/>
      <point x="273" y="740" type="curve" smooth="yes"/>
      <point x="273" y="1041"/>
      <point x="374" y="1365"/>
      <point x="777" y="1365" type="curve" smooth="yes"/>
      <point x="1168" y="1365"/>
      <point x="1279" y="1055"/>
      <point x="1279" y="740" type="curve" smooth="yes"/>
      <point x="1279" y="422"/>
      <point x="1166" y="115"/>
    </contour>
    <contour>
      <point x="777" y="-23" type="curve" smooth="yes"/>
      <point x="1239" y="-23"/>
      <point x="1459" y="282"/>
      <point x="1459" y="740" type="curve" smooth="yes"/>
      <point x="1459" y="1204"/>
      <point x="1238" y="1503"/>
      <point x="777" y="1503" type="curve" smooth="yes"/>
      <point x="316" y="1503"/>
      <point x="95" y="1203"/>
      <point x="95" y="740" type="curve" smooth="yes"/>
      <point x="95" y="280"/>
      <point x="315" y="-23"/>
    </contour>
  </outline>
</glyph>
<glyph name="P" format="1">
  <advance width="1140"/>
  <unicode hex="0050"/>
  <outline>
    <contour>
      <point x="134" y="0" type="line"/>
      <point x="312" y="0" type="line"/>
      <point x="312" y="625" type="line"/>
      <point x="456" y="625" type="line" smooth="yes"/>
      <point x="831" y="625"/>
      <point x="1073" y="758"/>
      <point x="1073" y="1057" type="curve" smooth="yes"/>
      <point x="1073" y="1359"/>
      <point x="891" y="1481"/>
      <point x="533" y="1481" type="curve" smooth="yes"/>
      <point x="134" y="1481" type="line"/>
    </contour>
    <contour>
      <point x="312" y="758" type="line"/>
      <point x="312" y="1348" type="line"/>
      <point x="531" y="1348" type="line" smooth="yes"/>
      <point x="820" y="1348"/>
      <point x="895" y="1248"/>
      <point x="895" y="1059" type="curve" smooth="yes"/>
      <point x="895" y="847"/>
      <point x="750" y="758"/>
      <point x="445" y="758" type="curve" smooth="yes"/>
    </contour>
  </outline>
</glyph>
<glyph name="Q" format="1">
  <advance width="1554"/>
  <unicode hex="0051"/>
  <outline>
    <contour>
      <point x="985" y="-407" type="line"/>
      <point x="1129" y="-352" type="line"/>
      <point x="890" y="251" type="line"/>
      <point x="722" y="251" type="line"/>
    </contour>
    <component base="O"/>
  </outline>
</glyph>
<glyph name="R" format="1">
  <advance width="1251"/>
  <unicode hex="0052"/>
  <outline>
    <contour>
      <point x="134" y="0" type="line"/>
      <point x="312" y="0" type="line"/>
      <point x="312" y="688" type="line"/>
      <point x="664" y="688" type="line"/>
      <point x="1044" y="0" type="line"/>
      <point x="1214" y="0" type="line"/>
      <point x="1214" y="46" type="line"/>
      <point x="841" y="711" type="line"/>
      <point x="1038" y="776"/>
      <point x="1138" y="901"/>
      <point x="1138" y="1102" type="curve" smooth="yes"/>
      <point x="1138" y="1421"/>
      <point x="884" y="1481"/>
      <point x="640" y="1481" type="curve" smooth="yes"/>
      <point x="134" y="1481" type="line"/>
    </contour>
    <contour>
      <point x="312" y="821" type="line"/>
      <point x="312" y="1348" type="line"/>
      <point x="656" y="1348" type="line" smooth="yes"/>
      <point x="873" y="1348"/>
      <point x="966" y="1249"/>
      <point x="966" y="1101" type="curve" smooth="yes"/>
      <point x="966" y="938"/>
      <point x="871" y="821"/>
      <point x="639" y="821" type="curve" smooth="yes"/>
    </contour>
  </outline>
</glyph>
<glyph name="X" format="1">
  <advance width="1373"/>
  <unicode hex="0058"/>
  <outline>
    <contour>
      <point x="1" y="0" type="line"/>
      <point x="205" y="0" type="line"/>
      <point x="317" y="145"/>
      <point x="426" y="292"/>
      <point x="538" y="436" type="curve"/>
      <point x="586" y="498"/>
      <point x="634" y="560"/>
      <point x="683" y="621" type="curve"/>
      <point x="728" y="559"/>
      <point x="776" y="498"/>
      <point x="822" y="436" type="curve"/>
      <point x="930" y="291"/>
      <point x="1041" y="146"/>
      <point x="1149" y="0" type="curve"/>
      <point x="1336" y="0" type="line"/>
      <point x="781" y="721" type="line"/>
      <point x="1372" y="1481" type="line"/>
      <point x="1165" y="1481" type="line"/>
      <point x="1044" y="1323"/>
      <point x="927" y="1161"/>
      <point x="807" y="1003" type="curve"/>
      <point x="767" y="950"/>
      <point x="723" y="894"/>
      <point x="682" y="843" type="curve"/>
      <point x="641" y="894"/>
      <point x="603" y="950"/>
      <point x="563" y="1003" type="curve"/>
      <point x="443" y="1161"/>
      <point x="214" y="1481"/>
      <point x="214" y="1481" type="curve"/>
      <point x="33" y="1481" type="line"/>
      <point x="584" y="741" type="line"/>
    </contour>
  </outline>
</glyph>
<glyph name="bracketleft" format="1">
  <advance width="619"/>
  <unicode hex="005B"/>
  <outline>
    <contour>
      <point x="96" y="-207" type="line"/>
      <point x="535" y="-207" type="line"/>
      <point x="535" y="-75" type="line"/>
      <point x="273" y="-75" type="line"/>
      <point x="273" y="1348" type="line"/>
      <point x="535" y="1348" type="line"/>
      <point x="535" y="1481" type="line"/>
      <point x="96" y="1481" type="line"/>
    </contour>
  </outline>
</glyph>
<glyph name="bracketright" format="1">
  <advance width="620"/>
  <unicode hex="005D"/>
  <outline>
    <contour>
      <point x="85" y="-207" type="line"/>
      <point x="525" y="-207" type="line"/>
      <point x="525" y="1481" type="line"/>
      <point x="85" y="1481" type="line"/>
      <point x="85" y="1348" type="line"/>
      <point x="347" y="1348" type="line"/>
      <point x="347" y="-75" type="line"/>
      <point x="85" y="-75" type="line"/>
    </contour>
  </outline>
</glyph>
<glyph name="asciicircum" format="1">
  <advance width="1361"/>
  <unicode hex="005E"/>
  <outline>
    <contour>
      <point x="76" y="598" type="line"/>
      <point x="307" y="598" type="line"/>
      <point x="667" y="1240" type="line"/>
      <point x="1044" y="600" type="line"/>
      <point x="1285" y="600" type="line"/>
      <point x="782" y="1387" type="line"/>
      <point x="551" y="1387" type="line"/>
    </contour>
  </outline>
</glyph>
<glyph name="grave" format="1">
  <advance width="368"/>
  <unicode hex="0060"/>
  <outline>
    <contour>
      <point x="245" y="1122" type="line"/>
      <point x="364" y="1122" type="line"/>
      <point x="154" y="1465" type="line"/>
      <point x="8" y="1465" type="line"/>
    </contour>
  </outline>
</glyph>
<glyph name="a" format="1">
  <advance width="1052"/>
  <unicode hex="0061"/>
  <outline>
    <contour>
      <point x="401" y="-21" type="curve" smooth="yes"/>
      <point x="590" y="-21"/>
      <point x="708" y="94"/>
      <point x="765" y="242" type="curve"/>
      <point x="765" y="0" type="line"/>
      <point x="943" y="0" type="line"/>
      <point x="943" y="616" type="line" smooth="yes"/>
      <point x="943" y="863"/>
      <point x="875" y="1058"/>
      <point x="528" y="1058" type="curve" smooth="yes"/>
      <point x="335" y="1058"/>
      <point x="164" y="997"/>
      <point x="139" y="982" type="curve"/>
      <point x="178" y="851" type="line"/>
      <point x="200" y="862"/>
      <point x="360" y="921"/>
      <point x="529" y="921" type="curve" smooth="yes"/>
      <point x="703" y="921"/>
      <point x="765" y="846"/>
      <point x="765" y="629" type="curve"/>
      <point x="330" y="629"/>
      <point x="74" y="571"/>
      <point x="74" y="273" type="curve"/>
      <point x="76" y="97"/>
      <point x="208" y="-21"/>
    </contour>
    <contour>
      <point x="429" y="113" type="curve" smooth="yes"/>
      <point x="338.303837824" y="113.0"/>
      <point x="238" y="168"/>
      <point x="238" y="279" type="curve" smooth="yes"/>
      <point x="238" y="417"/>
      <point x="335" y="513"/>
      <point x="765" y="513" type="curve"/>
      <point x="765" y="283"/>
      <point x="643" y="113"/>
    </contour>
  </outline>
</glyph>
<glyph name="b" format="1">
  <advance width="1152"/>
  <unicode hex="0062"/>
  <outline>
    <contour>
      <point x="588" y="-30" type="curve" smooth="yes"/>
      <point x="864" y="-30"/>
      <point x="1058" y="171"/>
      <point x="1058" y="531" type="curve" smooth="yes"/>
      <point x="1058" y="889"/>
      <point x="863" y="1052"/>
      <point x="627" y="1052" type="curve" smooth="yes"/>
      <point x="520" y="1052"/>
      <point x="355" y="990"/>
      <point x="299" y="885" type="curve"/>
      <point x="299" y="1429" type="line"/>
      <point x="121" y="1429" type="line"/>
      <point x="121" y="0" type="line"/>
      <point x="299" y="0" type="line"/>
      <point x="299" y="102" type="line"/>
      <point x="357" y="21"/>
      <point x="469" y="-30"/>
    </contour>
    <contour>
      <point x="575" y="112" type="curve" smooth="yes"/>
      <point x="474" y="112"/>
      <point x="375" y="149"/>
      <point x="299" y="197" type="curve"/>
      <point x="299" y="760" type="line"/>
      <point x="320" y="814"/>
      <point x="456" y="921"/>
      <point x="591" y="921" type="curve" smooth="yes"/>
      <point x="764" y="921"/>
      <point x="886" y="776"/>
      <point x="886" y="516" type="curve" smooth="yes"/>
      <point x="886" y="283"/>
      <point x="782" y="112"/>
    </contour>
  </outline>
</glyph>
<glyph name="c" format="1">
  <advance width="1026"/>
  <unicode hex="0063"/>
  <outline>
    <contour>
      <point x="624" y="-21" type="curve" smooth="yes"/>
      <point x="765" y="-21"/>
      <point x="874" y="18"/>
      <point x="951" y="67" type="curve"/>
      <point x="918" y="200" type="line"/>
      <point x="881" y="177"/>
      <point x="767" y="116"/>
      <point x="623" y="116" type="curve" smooth="yes"/>
      <point x="394" y="116"/>
      <point x="266" y="272"/>
      <point x="266" y="511" type="curve" smooth="yes"/>
      <point x="266" y="763"/>
      <point x="409" y="921"/>
      <point x="622" y="921" type="curve" smooth="yes"/>
      <point x="772" y="921"/>
      <point x="893" y="854"/>
      <point x="925" y="833" type="curve"/>
      <point x="960" y="966" type="line"/>
      <point x="836" y="1035"/>
      <point x="728" y="1055"/>
      <point x="606" y="1055" type="curve" smooth="yes"/>
      <point x="331" y="1055"/>
      <point x="94" y="876"/>
      <point x="94" y="512" type="curve" smooth="yes"/>
      <point x="94" y="144"/>
      <point x="318" y="-21"/>
    </contour>
  </outline>
</glyph>
<glyph name="d" format="1">
  <advance width="1151"/>
  <unicode hex="0064"/>
  <outline>
    <contour>
      <point x="548" y="-30" type="curve"/>
      <point x="676" y="-23"/>
      <point x="802" y="33"/>
      <point x="853" y="139" type="curve"/>
      <point x="853" y="0" type="line"/>
      <point x="1030" y="0" type="line"/>
      <point x="1030" y="1429" type="line"/>
      <point x="853" y="1429" type="line"/>
      <point x="853" y="901" type="line"/>
      <point x="789" y="1018"/>
      <point x="639" y="1052"/>
      <point x="532" y="1052" type="curve" smooth="yes"/>
      <point x="296" y="1052"/>
      <point x="94" y="863"/>
      <point x="94" y="505" type="curve" smooth="yes"/>
      <point x="94" y="145"/>
      <point x="307" y="-30"/>
    </contour>
    <contour>
      <point x="572" y="111" type="curve" smooth="yes"/>
      <point x="362" y="111"/>
      <point x="266" y="278"/>
      <point x="266" y="516" type="curve" smooth="yes"/>
      <point x="266" y="776"/>
      <point x="399" y="914"/>
      <point x="572" y="914" type="curve" smooth="yes"/>
      <point x="707" y="914"/>
      <point x="832" y="840"/>
      <point x="853" y="786" type="curve"/>
      <point x="853" y="244" type="line"/>
      <point x="834" y="192"/>
      <point x="711" y="111"/>
    </contour>
  </outline>
</glyph>
<glyph name="e" format="1">
  <advance width="1116.0"/>
  <unicode hex="0065"/>
  <outline>
    <contour>
      <point x="625.0" y="-21.0" type="curve" smooth="yes"/>
      <point x="861" y="-21"/>
      <point x="980.0" y="71.0"/>
      <point x="1010.0" y="102.0" type="curve"/>
      <point x="966.0" y="227.0" type="line"/>
      <point x="948.0" y="227.0" type="line"/>
      <point x="883.0" y="163.0"/>
      <point x="759" y="116"/>
      <point x="640" y="116" type="curve" smooth="yes"/>
      <point x="430" y="116"/>
      <point x="277" y="249"/>
      <point x="265" y="469" type="curve"/>
      <point x="1029.0" y="469.0" type="line"/>
      <point x="1029.0" y="501.0" type="line" smooth="yes"/>
      <point x="1029.0" y="794.0"/>
      <point x="896.0" y="1055.0"/>
      <point x="585.0" y="1055.0" type="curve" smooth="yes"/>
      <point x="310.0" y="1055.0"/>
      <point x="94.0" y="854.0"/>
      <point x="94.0" y="510.0" type="curve" smooth="yes"/>
      <point x="94.0" y="151.0"/>
      <point x="343" y="-21"/>
    </contour>
    <contour>
      <point x="268" y="595" type="line"/>
      <point x="287" y="782"/>
      <point x="409" y="921"/>
      <point x="587" y="921" type="curve"/>
      <point x="801" y="921"/>
      <point x="854.0" y="718.0"/>
      <point x="859.0" y="595.0" type="curve"/>
    </contour>
  </outline>
</glyph>
<glyph name="f" format="1">
  <advance width="702"/>
  <unicode hex="0066"/>
  <outline>
    <contour>
      <point x="204" y="0" type="line"/>
      <point x="382" y="0" type="line"/>
      <point x="382" y="910" type="line"/>
      <point x="659" y="910" type="line"/>
      <point x="659" y="1032" type="line"/>
      <point x="382" y="1032" type="line"/>
      <point x="382" y="1259"/>
      <point x="419" y="1294"/>
      <point x="567" y="1294" type="curve" smooth="yes"/>
      <point x="605" y="1294"/>
      <point x="666" y="1283"/>
      <point x="666" y="1283" type="curve"/>
      <point x="666" y="1421" type="line"/>
      <point x="612" y="1427"/>
      <point x="612" y="1432"/>
      <point x="538" y="1432" type="curve" smooth="yes"/>
      <point x="272" y="1432"/>
      <point x="204" y="1319"/>
      <point x="204" y="1069" type="curve" smooth="yes"/>
      <point x="204" y="1032" type="line"/>
      <point x="23" y="1032" type="line"/>
      <point x="23" y="910" type="line"/>
      <point x="204" y="910" type="line"/>
    </contour>
  </outline>
</glyph>
<glyph name="g" format="1">
  <advance width="1152"/>
  <unicode hex="0067"/>
  <outline>
    <contour>
      <point x="556" y="-391" type="curve" smooth="yes"/>
      <point x="887" y="-391"/>
      <point x="1030" y="-258"/>
      <point x="1030" y="141" type="curve" smooth="yes"/>
      <point x="1030" y="1032" type="line"/>
      <point x="852" y="1032" type="line"/>
      <point x="852" y="882" type="line"/>
      <point x="788" y="985"/>
      <point x="665" y="1053"/>
      <point x="542" y="1053" type="curve" smooth="yes"/>
      <point x="269" y="1053"/>
      <point x="94" y="857"/>
      <point x="94" y="510" type="curve" smooth="yes"/>
      <point x="94" y="158"/>
      <point x="293" y="-30"/>
      <point x="545" y="-30" type="curve" smooth="yes"/>
      <point x="668" y="-30"/>
      <point x="776" y="12"/>
      <point x="852" y="107" type="curve"/>
      <point x="852" y="49" type="line" smooth="yes"/>
      <point x="852" y="-157"/>
      <point x="776" y="-258"/>
      <point x="560" y="-258" type="curve" smooth="yes"/>
      <point x="382" y="-258"/>
      <point x="258" y="-187"/>
      <point x="258" y="-187" type="curve"/>
      <point x="223" y="-317" type="line"/>
      <point x="223" y="-317"/>
      <point x="366" y="-391"/>
    </contour>
    <contour>
      <point x="562" y="101" type="curve" smooth="yes"/>
      <point x="378" y="101"/>
      <point x="266" y="258"/>
      <point x="266" y="511" type="curve" smooth="yes"/>
      <point x="266" y="725"/>
      <point x="330" y="920"/>
      <point x="562" y="920" type="curve" smooth="yes"/>
      <point x="644" y="920"/>
      <point x="779" y="881"/>
      <point x="852" y="784" type="curve"/>
      <point x="852" y="232" type="line"/>
      <point x="771" y="130"/>
      <point x="654" y="101"/>
    </contour>
  </outline>
</glyph>
<glyph name="h" format="1">
  <advance width="1137"/>
  <unicode hex="0068"/>
  <outline>
    <contour>
      <point x="121" y="0" type="line"/>
      <point x="299" y="0" type="line"/>
      <point x="299" y="746" type="line" smooth="yes"/>
      <point x="299" y="789"/>
      <point x="445" y="921"/>
      <point x="629" y="921" type="curve" smooth="yes"/>
      <point x="732" y="921"/>
      <point x="853" y="872"/>
      <point x="853" y="707" type="curve" smooth="yes"/>
      <point x="853" y="0" type="line"/>
      <point x="1031" y="0" type="line"/>
      <point x="1031" y="691" type="line" smooth="yes"/>
      <point x="1031" y="935"/>
      <point x="882" y="1058"/>
      <point x="686" y="1058" type="curve" smooth="yes"/>
      <point x="543" y="1058"/>
      <point x="384" y="993"/>
      <point x="299" y="862" type="curve"/>
      <point x="299" y="1430" type="line"/>
      <point x="121" y="1430" type="line"/>
    </contour>
  </outline>
</glyph>
<glyph name="j" format="1">
  <advance width="520"/>
  <unicode hex="006A"/>
  <outline>
    <contour>
      <point x="103" y="-373" type="curve" smooth="yes"/>
      <point x="333" y="-373"/>
      <point x="368" y="-207"/>
      <point x="368" y="11" type="curve" smooth="yes"/>
      <point x="368" y="1032" type="line"/>
      <point x="190" y="1032" type="line"/>
      <point x="190" y="-11" type="line" smooth="yes"/>
      <point x="190" y="-219"/>
      <point x="134" y="-233"/>
      <point x="41" y="-233" type="curve" smooth="yes"/>
      <point x="10" y="-233"/>
      <point x="-54" y="-230"/>
      <point x="-54" y="-230" type="curve"/>
      <point x="-54" y="-366" type="line"/>
      <point x="-54" y="-366"/>
      <point x="0" y="-373"/>
    </contour>
    <contour>
      <point x="282" y="1189" type="curve" smooth="yes"/>
      <point x="364" y="1189"/>
      <point x="404" y="1250"/>
      <point x="404" y="1309" type="curve" smooth="yes"/>
      <point x="404" y="1369"/>
      <point x="364" y="1429"/>
      <point x="282" y="1429" type="curve" smooth="yes"/>
      <point x="197" y="1429"/>
      <point x="159" y="1370"/>
      <point x="159" y="1308" type="curve" smooth="yes"/>
      <point x="159" y="1251"/>
      <point x="199" y="1189"/>
    </contour>
  </outline>
</glyph>
<glyph name="k" format="1">
  <advance width="1060"/>
  <unicode hex="006B"/>
  <outline>
    <contour>
      <point x="115" y="0" type="line"/>
      <point x="293" y="0" type="line"/>
      <point x="293" y="413" type="line"/>
      <point x="446" y="531" type="line"/>
      <point x="880" y="0" type="line"/>
      <point x="1051" y="0" type="line"/>
      <point x="1051" y="50" type="line"/>
      <point x="577" y="607" type="line"/>
      <point x="1021" y="988" type="line"/>
      <point x="1021" y="1032" type="line"/>
      <point x="828" y="1032" type="line"/>
      <point x="828" y="1032"/>
      <point x="293.0" y="582.0"/>
      <point x="293" y="582" type="curve"/>
      <point x="293" y="1428" type="line"/>
      <point x="115" y="1428" type="line"/>
    </contour>
  </outline>
</glyph>
<glyph name="l" format="1">
  <advance width="565"/>
  <unicode hex="006C"/>
  <outline>
    <contour>
      <point x="451" y="-9" type="curve" smooth="yes"/>
      <point x="533" y="-9" type="line"/>
      <point x="533" y="129" type="line"/>
      <point x="341" y="129"/>
      <point x="313" y="161"/>
      <point x="313" y="311" type="curve" smooth="yes"/>
      <point x="313" y="1429" type="line"/>
      <point x="135" y="1429" type="line"/>
      <point x="135" y="313" type="line" smooth="yes"/>
      <point x="135" y="129"/>
      <point x="141" y="-9"/>
    </contour>
  </outline>
</glyph>
<glyph name="m" format="1">
  <advance width="1683"/>
  <unicode hex="006D"/>
  <outline>
    <contour>
      <point x="121" y="0" type="line"/>
      <point x="299" y="0" type="line"/>
      <point x="299" y="749" type="line"/>
      <point x="323" y="815"/>
      <point x="442" y="921"/>
      <point x="570" y="921" type="curve" smooth="yes"/>
      <point x="675" y="921"/>
      <point x="760" y="847"/>
      <point x="760" y="686" type="curve" smooth="yes"/>
      <point x="760" y="0" type="line"/>
      <point x="938" y="0" type="line"/>
      <point x="938" y="762" type="line" smooth="yes"/>
      <point x="938" y="800"/>
      <point x="1065" y="921"/>
      <point x="1204" y="921" type="curve" smooth="yes"/>
      <point x="1327" y="921"/>
      <point x="1399" y="845"/>
      <point x="1399" y="661" type="curve" smooth="yes"/>
      <point x="1399" y="0" type="line"/>
      <point x="1577" y="0" type="line"/>
      <point x="1577" y="680" type="line" smooth="yes"/>
      <point x="1577" y="941"/>
      <point x="1443" y="1058"/>
      <point x="1266" y="1058" type="curve" smooth="yes"/>
      <point x="1146" y="1058"/>
      <point x="1003" y="1002"/>
      <point x="914" y="882" type="curve"/>
      <point x="865" y="1014"/>
      <point x="759" y="1058"/>
      <point x="644" y="1058" type="curve" smooth="yes"/>
      <point x="503" y="1058"/>
      <point x="365" y="986"/>
      <point x="299" y="869" type="curve"/>
      <point x="299" y="1032" type="line"/>
      <point x="121" y="1032" type="line"/>
    </contour>
  </outline>
</glyph>
<glyph name="o" format="1">
  <advance width="1189"/>
  <unicode hex="006F"/>
  <outline>
    <contour>
      <point x="594" y="116" type="curve" smooth="yes"/>
      <point x="401" y="116"/>
      <point x="266" y="271"/>
      <point x="266" y="522" type="curve" smooth="yes"/>
      <point x="266" y="782"/>
      <point x="410" y="921"/>
      <point x="592" y="921" type="curve" smooth="yes"/>
      <point x="793" y="921"/>
      <point x="921" y="782"/>
      <point x="921" y="522" type="curve" smooth="yes"/>
      <point x="921" y="284"/>
      <point x="809" y="116"/>
    </contour>
    <contour>
      <point x="592" y="-21" type="curve" smooth="yes"/>
      <point x="848" y="-21"/>
      <point x="1095" y="134"/>
      <point x="1095" y="522" type="curve" smooth="yes"/>
      <point x="1095" y="913"/>
      <point x="848" y="1058"/>
      <point x="592" y="1058" type="curve" smooth="yes"/>
      <point x="352" y="1058"/>
      <point x="94" y="913"/>
      <point x="94" y="522" type="curve" smooth="yes"/>
      <point x="94" y="131"/>
      <point x="340" y="-21"/>
    </contour>
  </outline>
</glyph>
<glyph name="p" format="1">
  <advance width="1152"/>
  <unicode hex="0070"/>
  <outline>
    <contour>
      <point x="121" y="-388" type="line"/>
      <point x="299" y="-388" type="line"/>
      <point x="299" y="107" type="line"/>
      <point x="375" y="12"/>
      <point x="495" y="-21"/>
      <point x="618" y="-21" type="curve" smooth="yes"/>
      <point x="870" y="-21"/>
      <point x="1058" y="158"/>
      <point x="1058" y="510" type="curve" smooth="yes"/>
      <point x="1058" y="857"/>
      <point x="897" y="1053"/>
      <point x="624" y="1053" type="curve" smooth="yes"/>
      <point x="501" y="1053"/>
      <point x="363" y="985"/>
      <point x="299" y="882" type="curve"/>
      <point x="299" y="1032" type="line"/>
      <point x="121" y="1032" type="line"/>
    </contour>
    <contour>
      <point x="589" y="112" type="curve" smooth="yes"/>
      <point x="537" y="112"/>
      <point x="380" y="130"/>
      <point x="299" y="232" type="curve"/>
      <point x="299" y="784" type="line"/>
      <point x="372" y="881"/>
      <point x="511" y="921"/>
      <point x="593" y="921" type="curve" smooth="yes"/>
      <point x="808" y="921"/>
      <point x="880" y="725"/>
      <point x="880" y="511" type="curve" smooth="yes"/>
      <point x="880" y="258"/>
      <point x="773" y="112"/>
    </contour>
  </outline>
</glyph>
<glyph name="q" format="1">
  <advance width="1151"/>
  <unicode hex="0071"/>
  <outline>
    <contour>
      <point x="852" y="-388" type="line"/>
      <point x="1030" y="-388" type="line"/>
      <point x="1030" y="1032" type="line"/>
      <point x="852" y="1032" type="line"/>
      <point x="852" y="905" type="line"/>
      <point x="788" y="1008"/>
      <point x="665" y="1053"/>
      <point x="542" y="1053" type="curve" smooth="yes"/>
      <point x="273" y="1053"/>
      <point x="94" y="863"/>
      <point x="94" y="526" type="curve" smooth="yes"/>
      <point x="94" y="168"/>
      <point x="295" y="-21"/>
      <point x="551" y="-21" type="curve" smooth="yes"/>
      <point x="674" y="-21"/>
      <point x="781" y="20"/>
      <point x="852" y="107" type="curve"/>
    </contour>
    <contour>
      <point x="570" y="109" type="curve" smooth="yes"/>
      <point x="381" y="109"/>
      <point x="271" y="253"/>
      <point x="271" y="511" type="curve" smooth="yes"/>
      <point x="271" y="725"/>
      <point x="320" y="912"/>
      <point x="552" y="912" type="curve" smooth="yes"/>
      <point x="634" y="912"/>
      <point x="779" y="881"/>
      <point x="852" y="784" type="curve"/>
      <point x="852" y="232" type="line"/>
      <point x="776" y="136"/>
      <point x="631" y="109"/>
    </contour>
  </outline>
</glyph>
<glyph name="r" format="1">
  <advance width="705"/>
  <unicode hex="0072"/>
  <outline>
    <contour>
      <point x="121" y="0" type="line"/>
      <point x="299" y="0" type="line"/>
      <point x="299" y="787" type="line"/>
      <point x="375" y="862"/>
      <point x="471" y="884"/>
      <point x="550" y="884" type="curve" smooth="yes"/>
      <point x="604" y="884"/>
      <point x="652" y="873"/>
      <point x="678" y="862" type="curve"/>
      <point x="699" y="1016" type="line"/>
      <point x="674" y="1029"/>
      <point x="632" y="1036"/>
      <point x="596" y="1036" type="curve" smooth="yes"/>
      <point x="469" y="1036"/>
      <point x="357" y="969"/>
      <point x="300" y="904" type="curve"/>
      <point x="299" y="904" type="line"/>
      <point x="299" y="1032" type="line"/>
      <point x="121" y="1032" type="line"/>
    </contour>
  </outline>
</glyph>
<glyph name="s" format="1">
  <advance width="969"/>
  <unicode hex="0073"/>
  <outline>
    <contour>
      <point x="477" y="-21" type="curve"/>
      <point x="751" y="-21"/>
      <point x="890" y="93"/>
      <point x="890" y="287" type="curve" smooth="yes"/>
      <point x="890" y="473"/>
      <point x="788" y="554"/>
      <point x="544" y="604" type="curve" smooth="yes"/>
      <point x="310" y="652"/>
      <point x="255" y="682"/>
      <point x="255" y="770" type="curve" smooth="yes"/>
      <point x="255.0" y="891.066097649"/>
      <point x="384.303463337" y="921.0"/>
      <point x="487" y="921" type="curve" smooth="yes"/>
      <point x="605" y="921"/>
      <point x="731" y="880"/>
      <point x="789" y="858" type="curve"/>
      <point x="817" y="858" type="line"/>
      <point x="828" y="980" type="line"/>
      <point x="739" y="1022"/>
      <point x="641" y="1055"/>
      <point x="472" y="1055" type="curve" smooth="yes"/>
      <point x="219" y="1055"/>
      <point x="85" y="948"/>
      <point x="85" y="766" type="curve" smooth="yes"/>
      <point x="85" y="564"/>
      <point x="273" y="513"/>
      <point x="480" y="470" type="curve" smooth="yes"/>
      <point x="701" y="424"/>
      <point x="734" y="370"/>
      <point x="734" y="287" type="curve" smooth="yes"/>
      <point x="734" y="167"/>
      <point x="616" y="116"/>
      <point x="479" y="116" type="curve" smooth="yes"/>
      <point x="329" y="116"/>
      <point x="215" y="162"/>
      <point x="141" y="196" type="curve"/>
      <point x="114" y="196" type="line"/>
      <point x="89" y="71" type="line"/>
      <point x="192" y="9"/>
      <point x="342" y="-21"/>
    </contour>
  </outline>
</glyph>
<glyph name="t" format="1">
  <advance width="788"/>
  <unicode hex="0074"/>
  <outline>
    <contour>
      <point x="526" y="-13" type="curve" smooth="yes"/>
      <point x="600" y="-13"/>
      <point x="640" y="-8"/>
      <point x="707" y="5" type="curve"/>
      <point x="707" y="131" type="line"/>
      <point x="707" y="131"/>
      <point x="617" y="117"/>
      <point x="551" y="117" type="curve" smooth="yes"/>
      <point x="434" y="117"/>
      <point x="370" y="174"/>
      <point x="370" y="325" type="curve" smooth="yes"/>
      <point x="370" y="910" type="line"/>
      <point x="707" y="910" type="line"/>
      <point x="707" y="1032" type="line"/>
      <point x="370" y="1032" type="line"/>
      <point x="370" y="1352" type="line"/>
      <point x="192" y="1303" type="line"/>
      <point x="192" y="1032" type="line"/>
      <point x="50" y="1032" type="line"/>
      <point x="50" y="910" type="line"/>
      <point x="192" y="910" type="line"/>
      <point x="192" y="328" type="line" smooth="yes"/>
      <point x="192" y="91"/>
      <point x="278" y="-13"/>
    </contour>
  </outline>
</glyph>
<glyph name="u" format="1">
  <advance width="1137"/>
  <unicode hex="0075"/>
  <outline>
    <contour>
      <point x="462" y="-21" type="curve" smooth="yes"/>
      <point x="605" y="-21"/>
      <point x="753" y="32"/>
      <point x="838" y="163" type="curve"/>
      <point x="838" y="0" type="line"/>
      <point x="1016" y="0" type="line"/>
      <point x="1016" y="1032" type="line"/>
      <point x="838" y="1032" type="line"/>
      <point x="838" y="291" type="line"/>
      <point x="817" y="231"/>
      <point x="707" y="111"/>
      <point x="501" y="111" type="curve" smooth="yes"/>
      <point x="398" y="111"/>
      <point x="284" y="171"/>
      <point x="284" y="336" type="curve" smooth="yes"/>
      <point x="284" y="1032" type="line"/>
      <point x="106" y="1032" type="line"/>
      <point x="106" y="341" type="line" smooth="yes"/>
      <point x="106" y="97"/>
      <point x="266" y="-21"/>
    </contour>
  </outline>
</glyph>
<glyph name="v" format="1">
  <advance width="1058"/>
  <unicode hex="0076"/>
  <outline>
    <contour>
      <point x="424.0" y="0.0" type="line"/>
      <point x="641.0" y="0.0" type="line"/>
      <point x="1050" y="1032" type="line"/>
      <point x="857" y="1032" type="line"/>
      <point x="857" y="1032"/>
      <point x="589" y="277"/>
      <point x="589" y="277" type="curve"/>
      <point x="572" y="230"/>
      <point x="555" y="183"/>
      <point x="538" y="136" type="curve"/>
      <point x="536" y="136" type="line"/>
      <point x="518" y="183"/>
      <point x="500" y="230"/>
      <point x="482" y="277" type="curve"/>
      <point x="482" y="277"/>
      <point x="190" y="1032"/>
      <point x="190" y="1032" type="curve"/>
      <point x="7" y="1032" type="line"/>
    </contour>
  </outline>
</glyph>
<glyph name="w" format="1">
  <advance width="1605"/>
  <unicode hex="0077"/>
  <outline>
    <contour>
      <point x="349.0" y="0.0" type="line"/>
      <point x="563.0" y="0" type="line"/>
      <point x="809" y="884" type="line"/>
      <point x="812" y="884" type="line"/>
      <point x="1046.0" y="0" type="line"/>
      <point x="1254.0" y="0.0" type="line"/>
      <point x="1561" y="1032" type="line"/>
      <point x="1380.0" y="1032.0" type="line"/>
      <point x="1319.0" y="806.0"/>
      <point x="1258.0" y="569"/>
      <point x="1197.0" y="336" type="curve"/>
      <point x="1182.0" y="281"/>
      <point x="1168.0" y="227"/>
      <point x="1153.0" y="173" type="curve"/>
      <point x="1139.0" y="227"/>
      <point x="1125.0" y="282"/>
      <point x="1110.0" y="337" type="curve"/>
      <point x="1048.0" y="572"/>
      <point x="918.0" y="1032"/>
      <point x="918.0" y="1032" type="curve"/>
      <point x="696.0" y="1032" type="line"/>
      <point x="696.0" y="1032"/>
      <point x="566.0" y="565"/>
      <point x="504.0" y="329" type="curve"/>
      <point x="489.0" y="273"/>
      <point x="474.0" y="218"/>
      <point x="460.0" y="163" type="curve"/>
      <point x="459.0" y="163" type="line"/>
      <point x="444.0" y="218"/>
      <point x="430.0" y="273"/>
      <point x="415.0" y="329" type="curve"/>
      <point x="351.0" y="565"/>
      <point x="282.0" y="803.0"/>
      <point x="219.0" y="1032.0" type="curve"/>
      <point x="44" y="1032" type="line"/>
    </contour>
  </outline>
</glyph>
<glyph name="x" format="1">
  <advance width="1132.0"/>
  <unicode hex="0078"/>
  <outline>
    <contour>
      <point x="40" y="0" type="line"/>
      <point x="247.0" y="0.0" type="line"/>
      <point x="513.0" y="334.0" type="line"/>
      <point x="568.0" y="398.0" type="line"/>
      <point x="585.0" y="377.0"/>
      <point x="602.0" y="355.0"/>
      <point x="618.0" y="334.0" type="curve" smooth="yes"/>
      <point x="707.0" y="222.0"/>
      <point x="798.0" y="112.0"/>
      <point x="888.0" y="0.0" type="curve"/>
      <point x="1092.0" y="0.0" type="line"/>
      <point x="667.0" y="511.0" type="line"/>
      <point x="1096.0" y="1032.0" type="line"/>
      <point x="883.0" y="1032.0" type="line"/>
      <point x="802.0" y="931.0"/>
      <point x="722" y="825"/>
      <point x="640" y="725" type="curve"/>
      <point x="614" y="693"/>
      <point x="588" y="661"/>
      <point x="562" y="630" type="curve"/>
      <point x="536" y="662"/>
      <point x="510" y="693"/>
      <point x="484" y="725" type="curve"/>
      <point x="402" y="825"/>
      <point x="322.0" y="931.0"/>
      <point x="241.0" y="1032.0" type="curve"/>
      <point x="36" y="1032" type="line"/>
      <point x="462.0" y="513.0" type="line"/>
    </contour>
  </outline>
</glyph>
<glyph name="y" format="1">
  <advance width="1058"/>
  <unicode hex="0079"/>
  <outline>
    <contour>
      <point x="290" y="-391" type="curve"/>
      <point x="472" y="-391" type="line"/>
      <point x="472" y="-391"/>
      <point x="551" y="-231"/>
      <point x="603" y="-102" type="curve" smooth="yes"/>
      <point x="1058" y="1032" type="line"/>
      <point x="864" y="1032" type="line"/>
      <point x="533" y="145" type="line"/>
      <point x="194" y="1032" type="line"/>
      <point x="8" y="1032" type="line"/>
      <point x="443" y="-51" type="line"/>
      <point x="394" y="-178"/>
      <point x="344" y="-296"/>
    </contour>
  </outline>
</glyph>
<glyph name="z" format="1">
  <advance width="959"/>
  <unicode hex="007A"/>
  <outline>
    <contour>
      <point x="92" y="0" type="line"/>
      <point x="888" y="0" type="line"/>
      <point x="888" y="122" type="line"/>
      <point x="278" y="122" type="line"/>
      <point x="882" y="902" type="line"/>
      <point x="882" y="1032" type="line"/>
      <point x="118" y="1032" type="line"/>
      <point x="118" y="910" type="line"/>
      <point x="687" y="910" type="line"/>
      <point x="92" y="141" type="line"/>
    </contour>
  </outline>
</glyph>
<glyph name="braceleft" format="1">
  <advance width="778"/>
  <unicode hex="007B"/>
  <outline>
    <contour>
      <point x="691" y="-143" type="curve" smooth="yes"/>
      <point x="777" y="-143" type="line"/>
      <point x="777" y="-10" type="line"/>
      <point x="620" y="-10" type="line" smooth="yes"/>
      <point x="495" y="-10"/>
      <point x="482" y="29"/>
      <point x="482" y="133" type="curve" smooth="yes"/>
      <point x="482" y="316" type="line" smooth="yes"/>
      <point x="482" y="540"/>
      <point x="403" y="655"/>
      <point x="244" y="704" type="curve"/>
      <point x="244" y="711" type="line"/>
      <point x="403" y="760"/>
      <point x="482" y="876"/>
      <point x="482" y="1100" type="curve" smooth="yes"/>
      <point x="482" y="1273" type="line" smooth="yes"/>
      <point x="482" y="1377"/>
      <point x="495" y="1426"/>
      <point x="620" y="1426" type="curve" smooth="yes"/>
      <point x="777" y="1426" type="line"/>
      <point x="777" y="1559" type="line"/>
      <point x="691" y="1559" type="line" smooth="yes"/>
      <point x="435" y="1559"/>
      <point x="305" y="1522"/>
      <point x="305" y="1258" type="curve" smooth="yes"/>
      <point x="305" y="1093" type="line" smooth="yes"/>
      <point x="305" y="884"/>
      <point x="221" y="788"/>
      <point x="-4" y="788" type="curve"/>
      <point x="-4" y="627" type="line"/>
      <point x="221" y="627"/>
      <point x="305" y="531"/>
      <point x="305" y="322" type="curve" smooth="yes"/>
      <point x="305" y="156" type="line" smooth="yes"/>
      <point x="305" y="-108"/>
      <point x="435" y="-143"/>
    </contour>
  </outline>
</glyph>
<glyph name="bar" format="1">
  <advance width="376"/>
  <unicode hex="007C"/>
  <outline>
    <contour>
      <point x="99" y="-332" type="line"/>
      <point x="277" y="-332" type="line"/>
      <point x="277" y="1481" type="line"/>
      <point x="99" y="1481" type="line"/>
    </contour>
  </outline>
</glyph>
<glyph name="cent" format="1">
  <advance width="990"/>
  <unicode hex="00A2"/>
  <outline>
    <contour>
      <point x="474" y="-290" type="line"/>
      <point x="577" y="-290" type="line"/>
      <point x="577" y="1304" type="line"/>
      <point x="474" y="1304" type="line"/>
    </contour>
    <component base="c" xOffset="-103"/>
  </outline>
</glyph>
<glyph name="sterling" format="1">
  <advance width="1215"/>
  <unicode hex="00A3"/>
  <outline>
    <contour>
      <point x="814" y="-36" type="curve" smooth="yes"/>
      <point x="919" y="-36"/>
      <point x="1035" y="-5"/>
      <point x="1143" y="23" type="curve"/>
      <point x="1110" y="160" type="line"/>
      <point x="1017" y="143"/>
      <point x="855" y="105"/>
      <point x="762" y="105" type="curve" smooth="yes"/>
      <point x="673" y="105"/>
      <point x="494" y="144"/>
      <point x="405" y="146" type="curve"/>
      <point x="468" y="249"/>
      <point x="544" y="470"/>
      <point x="544" y="570" type="curve" smooth="yes"/>
      <point x="544" y="581"/>
      <point x="539" y="681"/>
      <point x="538" y="691" type="curve"/>
      <point x="965" y="691" type="line"/>
      <point x="965" y="810" type="line"/>
      <point x="517" y="810" type="line"/>
      <point x="503" y="875"/>
      <point x="429" y="1060"/>
      <point x="429" y="1135" type="curve" smooth="yes"/>
      <point x="429" y="1283"/>
      <point x="511" y="1371"/>
      <point x="728" y="1371" type="curve" smooth="yes"/>
      <point x="819" y="1371"/>
      <point x="934" y="1360"/>
      <point x="1007" y="1252" type="curve"/>
      <point x="1066" y="1252" type="line"/>
      <point x="1066" y="1400" type="line"/>
      <point x="1009" y="1457"/>
      <point x="858" y="1504"/>
      <point x="708" y="1504" type="curve" smooth="yes"/>
      <point x="433" y="1504"/>
      <point x="229" y="1377"/>
      <point x="229" y="1176" type="curve" smooth="yes"/>
      <point x="229" y="1073"/>
      <point x="301" y="947"/>
      <point x="329" y="810" type="curve"/>
      <point x="90" y="810" type="line"/>
      <point x="90" y="691" type="line"/>
      <point x="354" y="691" type="line"/>
      <point x="354" y="691"/>
      <point x="367" y="656"/>
      <point x="367" y="582" type="curve" smooth="yes"/>
      <point x="367" y="493"/>
      <point x="346" y="350"/>
      <point x="257" y="141" type="curve"/>
      <point x="219" y="132"/>
      <point x="146" y="128"/>
      <point x="81" y="122" type="curve"/>
      <point x="81" y="-16" type="line"/>
      <point x="156" y="-6"/>
      <point x="225" y="11"/>
      <point x="294" y="11" type="curve" smooth="yes"/>
      <point x="455" y="11"/>
      <point x="656" y="-36"/>
    </contour>
  </outline>
</glyph>
<glyph name="currency" format="1">
  <advance width="1027"/>
  <unicode hex="00A4"/>
  <outline>
    <contour>
      <point x="183" y="252" type="line"/>
      <point x="278" y="347" type="line"/>
      <point x="332" y="307"/>
      <point x="421" y="272"/>
      <point x="516" y="272" type="curve" smooth="yes"/>
      <point x="611" y="272"/>
      <point x="695" y="304"/>
      <point x="752" y="347" type="curve"/>
      <point x="847" y="252" type="line"/>
      <point x="946" y="352" type="line"/>
      <point x="854" y="446" type="line"/>
      <point x="896" y="500"/>
      <point x="929" y="589"/>
      <point x="929" y="685" type="curve" smooth="yes"/>
      <point x="929" y="780"/>
      <point x="896" y="868"/>
      <point x="854" y="924" type="curve"/>
      <point x="946" y="1018" type="line"/>
      <point x="847" y="1117" type="line"/>
      <point x="752" y="1026" type="line"/>
      <point x="695" y="1068"/>
      <point x="611" y="1099"/>
      <point x="516" y="1099" type="curve" smooth="yes"/>
      <point x="421" y="1099"/>
      <point x="332" y="1066"/>
      <point x="278" y="1024" type="curve"/>
      <point x="183" y="1117" type="line"/>
      <point x="81" y="1018" type="line"/>
      <point x="175" y="924" type="line"/>
      <point x="132" y="868"/>
      <point x="101" y="780"/>
      <point x="101" y="685" type="curve" smooth="yes"/>
      <point x="101" y="590"/>
      <point x="133" y="500"/>
      <point x="175" y="448" type="curve"/>
      <point x="81" y="352" type="line"/>
    </contour>
    <contour>
      <point x="516" y="409" type="curve" smooth="yes"/>
      <point x="360" y="409"/>
      <point x="253" y="515"/>
      <point x="253" y="685" type="curve" smooth="yes"/>
      <point x="253" y="854"/>
      <point x="360" y="961"/>
      <point x="516" y="961" type="curve" smooth="yes"/>
      <point x="674" y="961"/>
      <point x="779" y="854"/>
      <point x="779" y="685" type="curve" smooth="yes"/>
      <point x="779" y="515"/>
      <point x="674" y="409"/>
    </contour>
  </outline>
</glyph>
<glyph name="brokenbar" format="1">
  <advance width="331"/>
  <unicode hex="00A6"/>
  <outline>
    <contour>
      <point x="99" y="-337" type="line"/>
      <point x="232" y="-337" type="line"/>
      <point x="232" y="337" type="line"/>
      <point x="99" y="337" type="line"/>
    </contour>
    <contour>
      <point x="99" y="625" type="line"/>
      <point x="232" y="625" type="line"/>
      <point x="232" y="1296" type="line"/>
      <point x="99" y="1296" type="line"/>
    </contour>
  </outline>
</glyph>
<glyph name="section" format="1">
  <advance width="983"/>
  <unicode hex="00A7"/>
  <outline>
    <contour>
      <point x="483" y="-204" type="curve"/>
      <point x="782" y="-201"/>
      <point x="901" y="-92"/>
      <point x="901" y="102" type="curve" smooth="yes"/>
      <point x="901" y="225"/>
      <point x="863" y="302"/>
      <point x="774" y="352" type="curve"/>
      <point x="863" y="401"/>
      <point x="901" y="483"/>
      <point x="901" y="593" type="curve" smooth="yes"/>
      <point x="901" y="789"/>
      <point x="809" y="846"/>
      <point x="556" y="909" type="curve" smooth="yes"/>
      <point x="315" y="969"/>
      <point x="258" y="993"/>
      <point x="258" y="1090" type="curve" smooth="yes"/>
      <point x="258" y="1209"/>
      <point x="363" y="1227"/>
      <point x="464" y="1227" type="curve" smooth="yes"/>
      <point x="606" y="1227"/>
      <point x="781" y="1166"/>
      <point x="814" y="1152" type="curve"/>
      <point x="826" y="1296" type="line"/>
      <point x="737" y="1338"/>
      <point x="618" y="1371"/>
      <point x="449" y="1371" type="curve" smooth="yes"/>
      <point x="196" y="1371"/>
      <point x="84" y="1264"/>
      <point x="84" y="1082" type="curve" smooth="yes"/>
      <point x="84" y="959"/>
      <point x="157" y="890"/>
      <point x="261" y="847" type="curve"/>
      <point x="139" y="805"/>
      <point x="84" y="713"/>
      <point x="84" y="584" type="curve" smooth="yes"/>
      <point x="84" y="382"/>
      <point x="280" y="336"/>
      <point x="487" y="293" type="curve" smooth="yes"/>
      <point x="708" y="247"/>
      <point x="734" y="188"/>
      <point x="734" y="105" type="curve" smooth="yes"/>
      <point x="734" y="-15"/>
      <point x="645" y="-59"/>
      <point x="475" y="-59" type="curve" smooth="yes"/>
      <point x="307" y="-59"/>
      <point x="188" y="-12"/>
      <point x="115" y="24" type="curve"/>
      <point x="89" y="-113" type="line"/>
      <point x="192" y="-175"/>
      <point x="348" y="-204"/>
    </contour>
    <contour>
      <point x="599" y="414" type="line"/>
      <point x="587" y="417"/>
      <point x="573" y="420"/>
      <point x="560" y="423" type="curve" smooth="yes"/>
      <point x="305.050102567" y="475.052270726"/>
      <point x="242.0" y="505.678268932"/>
      <point x="242" y="608" type="curve" smooth="yes"/>
      <point x="242" y="704"/>
      <point x="313" y="775"/>
      <point x="451" y="791" type="curve"/>
      <point x="464" y="788"/>
      <point x="475" y="786"/>
      <point x="487" y="783" type="curve" smooth="yes"/>
      <point x="708" y="737"/>
      <point x="734" y="688"/>
      <point x="734" y="605" type="curve" smooth="yes"/>
      <point x="734" y="509"/>
      <point x="683" y="449"/>
      <point x="601" y="414" type="curve"/>
    </contour>
  </outline>
</glyph>
<glyph name="dieresis" format="1">
  <advance width="688"/>
  <unicode hex="00A8"/>
  <outline>
    <contour>
      <point x="99" y="1218" type="line"/>
      <point x="278" y="1218" type="line"/>
      <point x="278" y="1424" type="line"/>
      <point x="99" y="1424" type="line"/>
    </contour>
    <contour>
      <point x="411" y="1218" type="line"/>
      <point x="589" y="1218" type="line"/>
      <point x="589" y="1424" type="line"/>
      <point x="411" y="1424" type="line"/>
    </contour>
  </outline>
</glyph>
<glyph name="logicalnot" format="1">
  <advance width="1167"/>
  <unicode hex="00AC"/>
  <outline>
    <contour>
      <point x="951" y="273" type="line"/>
      <point x="1069" y="273" type="line"/>
      <point x="1069" y="776" type="line"/>
      <point x="95" y="776" type="line"/>
      <point x="95" y="659" type="line"/>
      <point x="951" y="659" type="line"/>
    </contour>
  </outline>
</glyph>
<glyph name="registered" format="1">
  <advance width="1727"/>
  <unicode hex="00AE"/>
  <outline>
    <contour>
      <point x="554" y="233" type="line"/>
      <point x="673" y="233" type="line"/>
      <point x="673" y="590" type="line"/>
      <point x="878" y="590" type="line"/>
      <point x="1121" y="233" type="line"/>
      <point x="1221" y="233" type="line"/>
      <point x="1221" y="276" type="line"/>
      <point x="993" y="605" type="line"/>
      <point x="1104" y="614"/>
      <point x="1191" y="691"/>
      <point x="1191" y="824" type="curve" smooth="yes"/>
      <point x="1191" y="1019"/>
      <point x="1015" y="1055"/>
      <point x="843" y="1055" type="curve" smooth="yes"/>
      <point x="554" y="1055" type="line"/>
    </contour>
    <contour>
      <point x="673" y="680" type="line"/>
      <point x="673" y="963" type="line"/>
      <point x="845" y="963" type="line" smooth="yes"/>
      <point x="1072" y="963"/>
      <point x="1076" y="901"/>
      <point x="1076" y="810" type="curve" smooth="yes"/>
      <point x="1076" y="733"/>
      <point x="1011" y="680"/>
      <point x="899" y="680" type="curve" smooth="yes"/>
    </contour>
    <contour>
      <point x="863" y="-23" type="curve" smooth="yes"/>
      <point x="527" y="-23"/>
      <point x="200" y="242"/>
      <point x="200" y="622" type="curve" smooth="yes"/>
      <point x="200" y="987"/>
      <point x="512" y="1267"/>
      <point x="863" y="1267" type="curve" smooth="yes"/>
      <point x="1200" y="1267"/>
      <point x="1522" y="999"/>
      <point x="1522" y="621" type="curve" smooth="yes"/>
      <point x="1522" y="248"/>
      <point x="1202" y="-23"/>
    </contour>
    <contour>
      <point x="863" y="-125" type="curve" smooth="yes"/>
      <point x="1287" y="-125"/>
      <point x="1640" y="219"/>
      <point x="1640" y="622" type="curve" smooth="yes"/>
      <point x="1640" y="1030"/>
      <point x="1275" y="1370"/>
      <point x="863" y="1370" type="curve" smooth="yes"/>
      <point x="439" y="1370"/>
      <point x="87" y="1025"/>
      <point x="87" y="622" type="curve" smooth="yes"/>
      <point x="87" y="195"/>
      <point x="455" y="-125"/>
    </contour>
  </outline>
</glyph>
<glyph name="macron" format="1">
  <advance width="751"/>
  <unicode hex="00AF"/>
  <outline>
    <contour>
      <point x="99" y="1180" type="line"/>
      <point x="652" y="1180" type="line"/>
      <point x="652" y="1292" type="line"/>
      <point x="99" y="1292" type="line"/>
    </contour>
  </outline>
</glyph>
<glyph name="plusminus" format="1">
  <advance width="1192"/>
  <unicode hex="00B1"/>
  <outline>
    <contour>
      <point x="524" y="286" type="line"/>
      <point x="657" y="286" type="line"/>
      <point x="657" y="645" type="line"/>
      <point x="1040" y="645" type="line"/>
      <point x="1040" y="777" type="line"/>
      <point x="657" y="777" type="line"/>
      <point x="657" y="1122" type="line"/>
      <point x="524" y="1122" type="line"/>
      <point x="524" y="777" type="line"/>
      <point x="153" y="777" type="line"/>
      <point x="153" y="645" type="line"/>
      <point x="524" y="645" type="line"/>
    </contour>
    <contour>
      <point x="168" y="0" type="line"/>
      <point x="1021" y="0" type="line"/>
      <point x="1021" y="133" type="line"/>
      <point x="168" y="133" type="line"/>
    </contour>
  </outline>
</glyph>
<glyph name="acute" format="1">
  <advance width="415"/>
  <unicode hex="00B4"/>
  <outline>
    <contour>
      <point x="3" y="1122" type="line"/>
      <point x="123" y="1122" type="line"/>
      <point x="412" y="1465" type="line"/>
      <point x="190" y="1465" type="line"/>
    </contour>
  </outline>
</glyph>
<glyph name="paragraph" format="1">
  <advance width="1112"/>
  <unicode hex="00B6"/>
  <outline>
    <contour>
      <point x="587" y="-260" type="line"/>
      <point x="715" y="-260" type="line"/>
      <point x="715" y="1374" type="line"/>
      <point x="889" y="1374" type="line"/>
      <point x="889" y="-260" type="line"/>
      <point x="1019" y="-260" type="line"/>
      <point x="1019" y="1481" type="line"/>
      <point x="604" y="1481" type="line" smooth="yes"/>
      <point x="236" y="1481"/>
      <point x="81" y="1392"/>
      <point x="81" y="1154" type="curve" smooth="yes"/>
      <point x="81.0" y="912.0"/>
      <point x="255" y="821"/>
      <point x="587" y="821" type="curve"/>
    </contour>
  </outline>
</glyph>
<glyph name="cedilla" format="1">
  <advance width="558"/>
  <unicode hex="00B8"/>
  <outline>
    <contour>
      <point x="239" y="-496" type="curve" smooth="yes"/>
      <point x="435" y="-496"/>
      <point x="502" y="-395"/>
      <point x="502" y="-278" type="curve" smooth="yes"/>
      <point x="502" y="-181"/>
      <point x="430" y="-120"/>
      <point x="278" y="-115" type="curve"/>
      <point x="318" y="2" type="line"/>
      <point x="240" y="2" type="line"/>
      <point x="177" y="-182" type="line"/>
      <point x="194" y="-185"/>
      <point x="208" y="-190"/>
      <point x="224" y="-195" type="curve"/>
      <point x="247" y="-189"/>
      <point x="268" y="-184"/>
      <point x="287" y="-184" type="curve" smooth="yes"/>
      <point x="360" y="-184"/>
      <point x="396" y="-231"/>
      <point x="396" y="-280" type="curve" smooth="yes"/>
      <point x="396" y="-380"/>
      <point x="322" y="-414"/>
      <point x="246" y="-414" type="curve" smooth="yes"/>
      <point x="189" y="-414"/>
      <point x="132" y="-395"/>
      <point x="109" y="-368" type="curve"/>
      <point x="80" y="-368" type="line"/>
      <point x="48" y="-454" type="line"/>
      <point x="98" y="-478"/>
      <point x="189" y="-496"/>
    </contour>
  </outline>
</glyph>
<glyph name="ordmasculine" format="1">
  <advance width="883"/>
  <unicode hex="00BA"/>
  <outline>
    <contour>
      <point x="442" y="776" type="curve" smooth="yes"/>
      <point x="306" y="776"/>
      <point x="242" y="848"/>
      <point x="242" y="1038" type="curve" smooth="yes"/>
      <point x="242" y="1258"/>
      <point x="332" y="1309"/>
      <point x="442" y="1309" type="curve" smooth="yes"/>
      <point x="573" y="1309"/>
      <point x="639" y="1231"/>
      <point x="639" y="1038" type="curve" smooth="yes"/>
      <point x="639" y="864"/>
      <point x="575" y="776"/>
    </contour>
    <contour>
      <point x="442" y="645" type="curve" smooth="yes"/>
      <point x="662" y="645"/>
      <point x="792" y="784"/>
      <point x="792" y="1038" type="curve" smooth="yes"/>
      <point x="792" y="1296"/>
      <point x="662" y="1429"/>
      <point x="442" y="1429" type="curve" smooth="yes"/>
      <point x="225" y="1429"/>
      <point x="90" y="1296"/>
      <point x="90" y="1038" type="curve" smooth="yes"/>
      <point x="90" y="784"/>
      <point x="222" y="645"/>
    </contour>
  </outline>
</glyph>
<glyph name="onehalf" format="1">
  <advance width="1540"/>
  <unicode hex="00BD"/>
  <outline>
    <contour>
      <point x="264" y="0" type="line"/>
      <point x="391" y="0" type="line"/>
      <point x="1223" y="1429" type="line"/>
      <point x="1096" y="1429" type="line"/>
    </contour>
    <component base="one.superior" xOffset="-72"/>
    <component base="two.superior" xOffset="837" yOffset="-553"/>
  </outline>
</glyph>
<glyph name="threequarters" format="1">
  <advance width="1418"/>
  <unicode hex="00BE"/>
  <outline>
    <contour>
      <point x="1225" y="0" type="line"/>
      <point x="1333" y="0" type="line"/>
      <point x="1333" y="120" type="line"/>
      <point x="1420" y="120" type="line"/>
      <point x="1420" y="223" type="line"/>
      <point x="1333" y="223" type="line"/>
      <point x="1333" y="818" type="line"/>
      <point x="1163" y="818" type="line"/>
      <point x="816" y="223" type="line"/>
      <point x="816" y="120" type="line"/>
      <point x="1225" y="120" type="line"/>
    </contour>
    <contour>
      <point x="307" y="0" type="line"/>
      <point x="434" y="0" type="line"/>
      <point x="1266" y="1429" type="line"/>
      <point x="1139" y="1429" type="line"/>
    </contour>
    <contour>
      <point x="934" y="223" type="line"/>
      <point x="1225" y="728" type="line"/>
      <point x="1225" y="223" type="line"/>
    </contour>
    <component base="three.superior" xOffset="-31"/>
  </outline>
</glyph>
<glyph name="Oslash" format="1">
  <advance width="1566"/>
  <unicode hex="00D8"/>
  <outline>
    <contour>
      <point x="784" y="-23" type="curve" smooth="yes"/>
      <point x="1246" y="-23"/>
      <point x="1466" y="282"/>
      <point x="1466" y="740" type="curve" smooth="yes"/>
      <point x="1466" y="965"/>
      <point x="1413" y="1153"/>
      <point x="1307" y="1284" type="curve"/>
      <point x="1470" y="1481" type="line"/>
      <point x="1274" y="1481" type="line"/>
      <point x="1198" y="1387" type="line"/>
      <point x="1093" y="1462"/>
      <point x="954" y="1503"/>
      <point x="784" y="1503" type="curve" smooth="yes"/>
      <point x="323" y="1503"/>
      <point x="102" y="1203"/>
      <point x="102" y="740" type="curve" smooth="yes"/>
      <point x="102" y="530"/>
      <point x="147" y="355"/>
      <point x="240" y="224" type="curve"/>
      <point x="57" y="0" type="line"/>
      <point x="251" y="0" type="line"/>
      <point x="344" y="114" type="line"/>
      <point x="453" y="27"/>
      <point x="600" y="-23"/>
    </contour>
    <contour>
      <point x="354" y="360" type="line"/>
      <point x="300" y="469"/>
      <point x="280" y="603"/>
      <point x="280" y="740" type="curve" smooth="yes"/>
      <point x="280" y="1041"/>
      <point x="381" y="1365"/>
      <point x="784" y="1365" type="curve" smooth="yes"/>
      <point x="920" y="1365"/>
      <point x="1022" y="1328"/>
      <point x="1098" y="1266" type="curve"/>
    </contour>
    <contour>
      <point x="784" y="115" type="curve" smooth="yes"/>
      <point x="631" y="115"/>
      <point x="521" y="159"/>
      <point x="444" y="233" type="curve"/>
      <point x="1196" y="1148" type="line"/>
      <point x="1263" y="1034"/>
      <point x="1286" y="888"/>
      <point x="1286" y="740" type="curve" smooth="yes"/>
      <point x="1286" y="422"/>
      <point x="1173" y="115"/>
    </contour>
  </outline>
</glyph>
<glyph name="Thorn" format="1">
  <advance width="1139"/>
  <unicode hex="00DE"/>
  <outline>
    <contour>
      <point x="174" y="0" type="line"/>
      <point x="352" y="0" type="line"/>
      <point x="352" y="352" type="line"/>
      <point x="667" y="352" type="line" smooth="yes"/>
      <point x="947" y="352"/>
      <point x="1096" y="511"/>
      <point x="1096" y="744" type="curve" smooth="yes"/>
      <point x="1096" y="970"/>
      <point x="947" y="1133"/>
      <point x="667" y="1133" type="curve" smooth="yes"/>
      <point x="352" y="1133" type="line"/>
      <point x="352" y="1481" type="line"/>
      <point x="174" y="1481" type="line"/>
    </contour>
    <contour>
      <point x="352" y="484" type="line"/>
      <point x="352" y="1001" type="line"/>
      <point x="662" y="1001" type="line" smooth="yes"/>
      <point x="803" y="1001"/>
      <point x="918" y="926"/>
      <point x="918" y="744" type="curve" smooth="yes"/>
      <point x="918" y="553"/>
      <point x="803" y="484"/>
      <point x="664" y="484" type="curve" smooth="yes"/>
    </contour>
  </outline>
</glyph>
<glyph name="germandbls" format="1">
  <advance width="1234"/>
  <unicode hex="00DF"/>
  <outline>
    <contour>
      <point x="121" y="0" type="line"/>
      <point x="299" y="0" type="line"/>
      <point x="299" y="1055" type="line" smooth="yes"/>
      <point x="299" y="1301"/>
      <point x="439" y="1371"/>
      <point x="592" y="1371" type="curve" smooth="yes"/>
      <point x="762" y="1371"/>
      <point x="858" y="1280"/>
      <point x="858" y="1175" type="curve" smooth="yes"/>
      <point x="858" y="1062"/>
      <point x="788" y="948"/>
      <point x="565" y="948" type="curve"/>
      <point x="565" y="836" type="line"/>
      <point x="863" y="836"/>
      <point x="1004" y="627"/>
      <point x="1004" y="442" type="curve" smooth="yes"/>
      <point x="1004" y="277"/>
      <point x="890" y="126"/>
      <point x="621" y="126" type="curve" smooth="yes"/>
      <point x="602" y="126"/>
      <point x="502" y="126"/>
      <point x="502" y="126" type="curve"/>
      <point x="502" y="0" type="line"/>
      <point x="502" y="0"/>
      <point x="607" y="0"/>
      <point x="626" y="0" type="curve" smooth="yes"/>
      <point x="1013" y="0"/>
      <point x="1178" y="208"/>
      <point x="1178" y="435" type="curve" smooth="yes"/>
      <point x="1178" y="636"/>
      <point x="1048" y="828"/>
      <point x="789" y="897" type="curve"/>
      <point x="789" y="898" type="line"/>
      <point x="941" y="921"/>
      <point x="1036" y="1059"/>
      <point x="1036" y="1175" type="curve" smooth="yes"/>
      <point x="1036" y="1372"/>
      <point x="853" y="1503"/>
      <point x="609" y="1503" type="curve" smooth="yes"/>
      <point x="271" y="1503"/>
      <point x="121" y="1334"/>
      <point x="121" y="1033" type="curve" smooth="yes"/>
    </contour>
  </outline>
</glyph>
<glyph name="ae" format="1">
  <advance width="1759"/>
  <unicode hex="00E6"/>
  <outline>
    <contour>
      <point x="428" y="-23" type="curve" smooth="yes"/>
      <point x="635" y="-23"/>
      <point x="791" y="63"/>
      <point x="860" y="221" type="curve"/>
      <point x="902" y="101"/>
      <point x="1040" y="-21"/>
      <point x="1280" y="-21" type="curve" smooth="yes"/>
      <point x="1488" y="-21"/>
      <point x="1576" y="44"/>
      <point x="1661" y="100" type="curve"/>
      <point x="1616" y="227" type="line"/>
      <point x="1598" y="227" type="line"/>
      <point x="1558" y="190"/>
      <point x="1458" y="126"/>
      <point x="1293" y="126" type="curve" smooth="yes"/>
      <point x="1064" y="126"/>
      <point x="930" y="268"/>
      <point x="930" y="469" type="curve"/>
      <point x="1680" y="469" type="line"/>
      <point x="1680" y="501" type="line" smooth="yes"/>
      <point x="1680" y="802"/>
      <point x="1542" y="1055"/>
      <point x="1227" y="1055" type="curve" smooth="yes"/>
      <point x="1104" y="1055"/>
      <point x="937" y="984"/>
      <point x="873" y="870" type="curve"/>
      <point x="810" y="1024"/>
      <point x="670" y="1058"/>
      <point x="495" y="1058" type="curve" smooth="yes"/>
      <point x="381" y="1058"/>
      <point x="211" y="1026"/>
      <point x="144" y="980" type="curve"/>
      <point x="182" y="844" type="line"/>
      <point x="271" y="887"/>
      <point x="397" y="914"/>
      <point x="510" y="914" type="curve" smooth="yes"/>
      <point x="742" y="914"/>
      <point x="767" y="804"/>
      <point x="772" y="635" type="curve"/>
      <point x="682" y="635"/>
      <point x="603" y="631"/>
      <point x="533" y="625" type="curve" smooth="yes"/>
      <point x="195" y="594"/>
      <point x="82" y="485"/>
      <point x="82" y="298" type="curve" smooth="yes"/>
      <point x="82" y="56"/>
      <point x="280" y="-23"/>
    </contour>
    <contour>
      <point x="425" y="112" type="curve" smooth="yes"/>
      <point x="309" y="112"/>
      <point x="247" y="185"/>
      <point x="247" y="299" type="curve" smooth="yes"/>
      <point x="247" y="415"/>
      <point x="300" y="514"/>
      <point x="772" y="514" type="curve"/>
      <point x="769" y="241"/>
      <point x="667" y="112"/>
    </contour>
    <contour>
      <point x="933" y="595" type="line"/>
      <point x="947" y="738"/>
      <point x="1036" y="914"/>
      <point x="1241" y="914" type="curve" smooth="yes"/>
      <point x="1438" y="914"/>
      <point x="1506" y="732"/>
      <point x="1508" y="595" type="curve"/>
    </contour>
  </outline>
</glyph>
<glyph name="divide" format="1">
  <advance width="1172"/>
  <unicode hex="00F7"/>
  <outline>
    <contour>
      <point x="570" y="0" type="curve" smooth="yes"/>
      <point x="653" y="0"/>
      <point x="721" y="68"/>
      <point x="721" y="150" type="curve" smooth="yes"/>
      <point x="721" y="233"/>
      <point x="653" y="301"/>
      <point x="570" y="301" type="curve" smooth="yes"/>
      <point x="487" y="301"/>
      <point x="420" y="233"/>
      <point x="420" y="150" type="curve" smooth="yes"/>
      <point x="420" y="68"/>
      <point x="487" y="0"/>
    </contour>
    <contour>
      <point x="99" y="444" type="line"/>
      <point x="1073" y="444" type="line"/>
      <point x="1073" y="594" type="line"/>
      <point x="99" y="594" type="line"/>
    </contour>
    <contour>
      <point x="570" y="730" type="curve" smooth="yes"/>
      <point x="653" y="730"/>
      <point x="721" y="799"/>
      <point x="721" y="882" type="curve" smooth="yes"/>
      <point x="721" y="965"/>
      <point x="653" y="1032"/>
      <point x="570" y="1032" type="curve" smooth="yes"/>
      <point x="487" y="1032"/>
      <point x="420" y="965"/>
      <point x="420" y="882" type="curve" smooth="yes"/>
      <point x="420" y="799"/>
      <point x="487" y="730"/>
    </contour>
  </outline>
</glyph>
<glyph name="thorn" format="1">
  <advance width="1158"/>
  <unicode hex="00FE"/>
  <outline>
    <contour>
      <point x="133" y="-388" type="line"/>
      <point x="310" y="-388" type="line"/>
      <point x="310" y="107" type="line"/>
      <point x="386" y="12"/>
      <point x="507" y="-21"/>
      <point x="630" y="-21" type="curve" smooth="yes"/>
      <point x="882" y="-21"/>
      <point x="1070" y="158"/>
      <point x="1070" y="510" type="curve" smooth="yes"/>
      <point x="1070" y="857"/>
      <point x="894" y="1053"/>
      <point x="621" y="1053" type="curve" smooth="yes"/>
      <point x="498" y="1053"/>
      <point x="374" y="985"/>
      <point x="310" y="882" type="curve"/>
      <point x="310" y="1429" type="line"/>
      <point x="133" y="1429" type="line"/>
    </contour>
    <contour>
      <point x="601" y="112" type="curve" smooth="yes"/>
      <point x="549" y="112"/>
      <point x="391" y="130"/>
      <point x="310" y="232" type="curve"/>
      <point x="310" y="784" type="line"/>
      <point x="383" y="881"/>
      <point x="529" y="912"/>
      <point x="611" y="912" type="curve" smooth="yes"/>
      <point x="843" y="912"/>
      <point x="892" y="725"/>
      <point x="892" y="511" type="curve" smooth="yes"/>
      <point x="892" y="258"/>
      <point x="785" y="112"/>
    </contour>
  </outline>
</glyph>
<glyph name="dotlessi" format="1">
  <advance width="497"/>
  <unicode hex="0131"/>
  <outline>
    <contour>
      <point x="154" y="0" type="line"/>
      <point x="332" y="0" type="line"/>
      <point x="332" y="1032" type="line"/>
      <point x="154" y="1032" type="line"/>
    </contour>
  </outline>
</glyph>
<glyph name="kgreenlandic" format="1">
  <advance width="1060"/>
  <unicode hex="0138"/>
  <outline>
    <contour>
      <point x="115" y="0" type="line"/>
      <point x="293" y="0" type="line"/>
      <point x="293" y="388" type="line"/>
      <point x="446" y="516" type="line"/>
      <point x="880" y="0" type="line"/>
      <point x="1051" y="0" type="line"/>
      <point x="1051" y="50" type="line"/>
      <point x="577" y="591" type="line"/>
      <point x="1021" y="988" type="line"/>
      <point x="1021" y="1032" type="line"/>
      <point x="828" y="1032" type="line"/>
      <point x="294" y="556" type="line"/>
      <point x="293" y="556" type="line"/>
      <point x="293" y="1046" type="line"/>
      <point x="115" y="1046" type="line"/>
    </contour>
  </outline>
</glyph>
<glyph name="Lslash" format="1">
  <advance width="1113"/>
  <unicode hex="0141"/>
  <outline>
    <contour>
      <point x="229" y="0" type="line"/>
      <point x="1076" y="0" type="line"/>
      <point x="1076" y="133" type="line"/>
      <point x="406" y="133" type="line"/>
      <point x="406" y="655" type="line"/>
      <point x="723" y="884" type="line"/>
      <point x="723" y="1033" type="line"/>
      <point x="406" y="804" type="line"/>
      <point x="406" y="1481" type="line"/>
      <point x="229" y="1481" type="line"/>
      <point x="229" y="676" type="line"/>
      <point x="76" y="567" type="line"/>
      <point x="76" y="417" type="line"/>
      <point x="229" y="527" type="line"/>
    </contour>
  </outline>
</glyph>
<glyph name="lslash" format="1">
  <advance width="565"/>
  <unicode hex="0142"/>
  <outline>
    <contour>
      <point x="451" y="-9" type="curve" smooth="yes"/>
      <point x="533" y="-9" type="line"/>
      <point x="533" y="133" type="line"/>
      <point x="321" y="133"/>
      <point x="313" y="161"/>
      <point x="313" y="311" type="curve" smooth="yes"/>
      <point x="313" y="761" type="line"/>
      <point x="477" y="890" type="line"/>
      <point x="477" y="1033" type="line"/>
      <point x="313" y="904" type="line"/>
      <point x="313" y="1429" type="line"/>
      <point x="135" y="1429" type="line"/>
      <point x="135" y="766" type="line"/>
      <point x="28" y="683" type="line"/>
      <point x="28" y="541" type="line"/>
      <point x="135" y="623" type="line"/>
      <point x="135" y="313" type="line" smooth="yes"/>
      <point x="135" y="129"/>
      <point x="141" y="-9"/>
    </contour>
  </outline>
</glyph>
<glyph name="OE" format="1">
  <advance width="1913"/>
  <unicode hex="0152"/>
  <outline>
    <contour>
      <point x="741" y="0" type="curve" smooth="yes"/>
      <point x="1798" y="0" type="line"/>
      <point x="1798" y="133" type="line"/>
      <point x="1174" y="133" type="line"/>
      <point x="1174" y="719" type="line"/>
      <point x="1717" y="719" type="line"/>
      <point x="1717" y="852" type="line"/>
      <point x="1174" y="852" type="line"/>
      <point x="1174" y="1348" type="line"/>
      <point x="1798" y="1348" type="line"/>
      <point x="1798" y="1481" type="line"/>
      <point x="694" y="1481" type="line" smooth="yes"/>
      <point x="267" y="1481"/>
      <point x="102" y="1118"/>
      <point x="102" y="760" type="curve" smooth="yes"/>
      <point x="102" y="457"/>
      <point x="151" y="0"/>
    </contour>
    <contour>
      <point x="708" y="133" type="curve" smooth="yes"/>
      <point x="369" y="133"/>
      <point x="279" y="444"/>
      <point x="279" y="758" type="curve" smooth="yes"/>
      <point x="279" y="1076"/>
      <point x="387" y="1348"/>
      <point x="713" y="1348" type="curve" smooth="yes"/>
      <point x="996" y="1348" type="line"/>
      <point x="996" y="133" type="line"/>
      <point x="996" y="133"/>
      <point x="708.0" y="133.0"/>
    </contour>
  </outline>
</glyph>
<glyph name="florin" format="1">
  <advance width="1168"/>
  <unicode hex="0192"/>
  <outline>
    <contour>
      <point x="227" y="-240" type="curve" smooth="yes"/>
      <point x="437" y="-240"/>
      <point x="550" y="-115"/>
      <point x="600" y="134" type="curve"/>
      <point x="614" y="216"/>
      <point x="657" y="500"/>
      <point x="691" y="727" type="curve"/>
      <point x="984" y="727" type="line"/>
      <point x="1003" y="830" type="line"/>
      <point x="707" y="830" type="line"/>
      <point x="724" y="939"/>
      <point x="735" y="1019"/>
      <point x="737" y="1029" type="curve" smooth="yes"/>
      <point x="776" y="1258"/>
      <point x="822" y="1353"/>
      <point x="948" y="1353" type="curve" smooth="yes"/>
      <point x="981" y="1353"/>
      <point x="1043" y="1345"/>
      <point x="1069" y="1334" type="curve"/>
      <point x="1090" y="1466" type="line"/>
      <point x="1061" y="1475"/>
      <point x="1018" y="1483"/>
      <point x="969" y="1483" type="curve" smooth="yes"/>
      <point x="742" y="1483"/>
      <point x="598" y="1337"/>
      <point x="553" y="1065" type="curve" smooth="yes"/>
      <point x="551" y="1054"/>
      <point x="535" y="957"/>
      <point x="516" y="830" type="curve"/>
      <point x="275" y="830" type="line"/>
      <point x="256" y="727" type="line"/>
      <point x="502" y="727" type="line"/>
      <point x="466" y="487"/>
      <point x="422" y="204"/>
      <point x="417" y="178" type="curve" smooth="yes"/>
      <point x="378" y="-61"/>
      <point x="314" y="-97"/>
      <point x="227" y="-97" type="curve" smooth="yes"/>
      <point x="196" y="-97"/>
      <point x="147" y="-88"/>
      <point x="120" y="-77" type="curve"/>
      <point x="97" y="-220" type="line"/>
      <point x="128" y="-230"/>
      <point x="173" y="-240"/>
    </contour>
  </outline>
</glyph>
<glyph name="uni0237" format="1">
  <advance width="520"/>
  <unicode hex="0237"/>
  <outline>
    <contour>
      <point x="103" y="-373" type="curve" smooth="yes"/>
      <point x="333" y="-373"/>
      <point x="368" y="-207"/>
      <point x="368" y="11" type="curve" smooth="yes"/>
      <point x="368" y="1032" type="line"/>
      <point x="191" y="1032" type="line"/>
      <point x="191" y="-11" type="line" smooth="yes"/>
      <point x="191" y="-214"/>
      <point x="127" y="-229"/>
      <point x="25" y="-229" type="curve" smooth="yes"/>
      <point x="-6" y="-229"/>
      <point x="-18" y="-229"/>
      <point x="-54" y="-226" type="curve"/>
      <point x="-54" y="-366" type="line"/>
      <point x="-23" y="-369"/>
      <point x="0" y="-373"/>
    </contour>
  </outline>
</glyph>
<glyph name="circumflex" format="1">
  <advance width="857"/>
  <unicode hex="02C6"/>
  <outline>
    <contour>
      <point x="77" y="1164" type="line"/>
      <point x="225" y="1164" type="line"/>
      <point x="426" y="1400" type="line"/>
      <point x="632" y="1164" type="line"/>
      <point x="780" y="1164" type="line"/>
      <point x="492" y="1506" type="line"/>
      <point x="364" y="1506" type="line"/>
    </contour>
  </outline>
</glyph>
<glyph name="caron" format="1">
  <advance width="862"/>
  <unicode hex="02C7"/>
  <outline>
    <contour>
      <point x="367" y="1088" type="line"/>
      <point x="476" y="1088" type="line"/>
      <point x="783" y="1429" type="line"/>
      <point x="644" y="1429" type="line"/>
      <point x="423" y="1194" type="line"/>
      <point x="227" y="1429" type="line"/>
      <point x="80" y="1429" type="line"/>
    </contour>
  </outline>
</glyph>
<glyph name="breve" format="1">
  <advance width="857"/>
  <unicode hex="02D8"/>
  <outline>
    <contour>
      <point x="428" y="1144" type="curve" smooth="yes"/>
      <point x="638" y="1144"/>
      <point x="766" y="1257"/>
      <point x="766" y="1471" type="curve"/>
      <point x="613" y="1471" type="line"/>
      <point x="613" y="1344"/>
      <point x="557" y="1288"/>
      <point x="428" y="1288" type="curve" smooth="yes"/>
      <point x="287" y="1288"/>
      <point x="243" y="1345"/>
      <point x="243" y="1471" type="curve"/>
      <point x="92" y="1471" type="line"/>
      <point x="92" y="1258"/>
      <point x="201" y="1144"/>
    </contour>
  </outline>
</glyph>
<glyph name="dotaccent" format="1">
  <advance width="482"/>
  <unicode hex="02D9"/>
  <outline>
    <contour>
      <point x="241" y="1183" type="curve" smooth="yes"/>
      <point x="323" y="1183"/>
      <point x="390" y="1249"/>
      <point x="390" y="1332" type="curve" smooth="yes"/>
      <point x="390" y="1414"/>
      <point x="323" y="1481"/>
      <point x="241" y="1481" type="curve" smooth="yes"/>
      <point x="158" y="1481"/>
      <point x="92" y="1414"/>
      <point x="92" y="1332" type="curve" smooth="yes"/>
      <point x="92" y="1249"/>
      <point x="158" y="1183"/>
    </contour>
  </outline>
</glyph>
<glyph name="ring" format="1">
  <advance width="638"/>
  <unicode hex="02DA"/>
  <outline>
    <contour>
      <point x="319" y="1112" type="curve" smooth="yes"/>
      <point x="237" y="1112"/>
      <point x="177" y="1175"/>
      <point x="177" y="1257" type="curve" smooth="yes"/>
      <point x="177" y="1339"/>
      <point x="240" y="1404"/>
      <point x="319" y="1404" type="curve" smooth="yes"/>
      <point x="401" y="1404"/>
      <point x="461" y="1336"/>
      <point x="461" y="1257" type="curve" smooth="yes"/>
      <point x="461" y="1177"/>
      <point x="401" y="1112"/>
    </contour>
    <contour>
      <point x="319" y="1042" type="curve" smooth="yes"/>
      <point x="446" y="1042"/>
      <point x="547" y="1135"/>
      <point x="547" y="1258" type="curve" smooth="yes"/>
      <point x="547" y="1380"/>
      <point x="446" y="1474"/>
      <point x="319" y="1474" type="curve" smooth="yes"/>
      <point x="194" y="1474"/>
      <point x="91" y="1379"/>
      <point x="91" y="1259" type="curve" smooth="yes"/>
      <point x="91" y="1137"/>
      <point x="192" y="1042"/>
    </contour>
  </outline>
</glyph>
<glyph name="ogonek" format="1">
  <advance width="532"/>
  <unicode hex="02DB"/>
  <outline>
    <contour>
      <point x="285" y="-407" type="curve" smooth="yes"/>
      <point x="334" y="-407"/>
      <point x="393" y="-397"/>
      <point x="462" y="-374" type="curve"/>
      <point x="450" y="-266" type="line"/>
      <point x="408" y="-278"/>
      <point x="349" y="-291"/>
      <point x="316" y="-291" type="curve" smooth="yes"/>
      <point x="237" y="-291"/>
      <point x="206" y="-243"/>
      <point x="206" y="-177" type="curve" smooth="yes"/>
      <point x="206" y="-121"/>
      <point x="229" y="-55"/>
      <point x="268" y="5" type="curve"/>
      <point x="164" y="5" type="line"/>
      <point x="119" y="-47"/>
      <point x="76" y="-118"/>
      <point x="76" y="-207" type="curve" smooth="yes"/>
      <point x="76" y="-326"/>
      <point x="146" y="-407"/>
    </contour>
  </outline>
</glyph>
<glyph name="tilde" format="1">
  <advance width="849"/>
  <unicode hex="02DC"/>
  <outline>
    <contour>
      <point x="582" y="1168" type="curve" smooth="yes"/>
      <point x="694" y="1168"/>
      <point x="772" y="1234"/>
      <point x="772" y="1402" type="curve"/>
      <point x="635" y="1402" type="line"/>
      <point x="631" y="1333"/>
      <point x="615" y="1293"/>
      <point x="567" y="1293" type="curve" smooth="yes"/>
      <point x="504" y="1293"/>
      <point x="402" y="1401"/>
      <point x="261" y="1401" type="curve" smooth="yes"/>
      <point x="154" y="1401"/>
      <point x="77" y="1323"/>
      <point x="77" y="1169" type="curve"/>
      <point x="214" y="1169" type="line"/>
      <point x="217" y="1237"/>
      <point x="235" y="1274"/>
      <point x="276" y="1274" type="curve" smooth="yes"/>
      <point x="352" y="1274"/>
      <point x="463" y="1168"/>
    </contour>
  </outline>
</glyph>
<glyph name="hungarumlaut" format="1">
  <advance width="662"/>
  <unicode hex="02DD"/>
  <outline>
    <contour>
      <point x="3" y="1122" type="line"/>
      <point x="122" y="1122" type="line"/>
      <point x="371" y="1465" type="line"/>
      <point x="191" y="1465" type="line"/>
    </contour>
    <contour>
      <point x="250" y="1122" type="line"/>
      <point x="369" y="1122" type="line"/>
      <point x="659" y="1465" type="line"/>
      <point x="450" y="1465" type="line"/>
    </contour>
  </outline>
</glyph>
<glyph name="Delta" format="1">
  <advance width="1154"/>
  <unicode hex="0394"/>
  <outline>
    <contour>
      <point x="81" y="0" type="line"/>
      <point x="1073" y="0" type="line"/>
      <point x="1073" y="76" type="line"/>
      <point x="692" y="1370" type="line"/>
      <point x="476" y="1370" type="line"/>
      <point x="81" y="73" type="line"/>
    </contour>
    <contour>
      <point x="271" y="111" type="line" smooth="yes"/>
      <point x="274" y="111"/>
      <point x="565" y="1172"/>
      <point x="581" y="1249" type="curve"/>
      <point x="586" y="1249" type="line"/>
      <point x="879" y="111" type="line"/>
    </contour>
  </outline>
</glyph>
<glyph name="Omega" format="1">
  <advance width="1165"/>
  <unicode hex="03A9"/>
  <outline>
    <contour>
      <point x="68" y="0" type="line"/>
      <point x="488" y="0" type="line"/>
      <point x="488" y="117" type="line"/>
      <point x="385" y="199"/>
      <point x="280" y="420"/>
      <point x="280" y="700" type="curve" smooth="yes"/>
      <point x="280" y="986"/>
      <point x="398" y="1198"/>
      <point x="587" y="1198" type="curve" smooth="yes"/>
      <point x="788" y="1198"/>
      <point x="882" y="951"/>
      <point x="882" y="709" type="curve" smooth="yes"/>
      <point x="882" y="404"/>
      <point x="781" y="202"/>
      <point x="676" y="117" type="curve"/>
      <point x="676" y="0" type="line"/>
      <point x="1096" y="0" type="line"/>
      <point x="1096" y="160" type="line"/>
      <point x="864" y="160" type="line"/>
      <point x="864" y="165" type="line"/>
      <point x="967" y="280"/>
      <point x="1074" y="495"/>
      <point x="1074" y="753" type="curve" smooth="yes"/>
      <point x="1074" y="1052"/>
      <point x="904" y="1364"/>
      <point x="590" y="1364" type="curve" smooth="yes"/>
      <point x="297" y="1364"/>
      <point x="91" y="1096"/>
      <point x="91" y="740" type="curve" smooth="yes"/>
      <point x="91" y="488"/>
      <point x="191" y="288"/>
      <point x="298" y="165" type="curve"/>
      <point x="298" y="160" type="line"/>
      <point x="68" y="160" type="line"/>
    </contour>
  </outline>
</glyph>
<glyph name="mu" format="1">
  <advance width="849"/>
  <unicode hex="03BC"/>
  <outline>
    <contour>
      <point x="81" y="-253" type="line"/>
      <point x="214" y="-253" type="line"/>
      <point x="214" y="33" type="line"/>
      <point x="245" y="0"/>
      <point x="300" y="-15"/>
      <point x="348" y="-15" type="curve" smooth="yes"/>
      <point x="456" y="-15"/>
      <point x="567" y="17"/>
      <point x="630" y="116" type="curve"/>
      <point x="630" y="0" type="line"/>
      <point x="763" y="0" type="line"/>
      <point x="763" y="774" type="line"/>
      <point x="630" y="774" type="line"/>
      <point x="630" y="214" type="line" smooth="yes"/>
      <point x="630" y="182"/>
      <point x="521" y="91"/>
      <point x="383" y="91" type="curve" smooth="yes"/>
      <point x="308" y="91"/>
      <point x="220" y="118"/>
      <point x="214" y="233" type="curve"/>
      <point x="214" y="774" type="line"/>
      <point x="81" y="774" type="line"/>
    </contour>
  </outline>
</glyph>
<glyph name="quotesinglbase" format="1">
  <advance width="420"/>
  <unicode hex="201A"/>
  <outline>
    <contour>
      <point x="42" y="-244" type="line"/>
      <point x="198" y="-244" type="line"/>
      <point x="384" y="242" type="line"/>
      <point x="140" y="242" type="line"/>
    </contour>
  </outline>
</glyph>
<glyph name="quotedblleft" format="1">
  <advance width="690"/>
  <unicode hex="201C"/>
  <outline>
    <contour>
      <point x="217" y="1013" type="line"/>
      <point x="329" y="1013" type="line"/>
      <point x="232" y="1481" type="line"/>
      <point x="43" y="1481" type="line"/>
    </contour>
    <contour>
      <point x="524" y="1013" type="line"/>
      <point x="636" y="1013" type="line"/>
      <point x="540" y="1481" type="line"/>
      <point x="351" y="1481" type="line"/>
    </contour>
  </outline>
</glyph>
<glyph name="quotedblright" format="1">
  <advance width="691"/>
  <unicode hex="201D"/>
  <outline>
    <contour>
      <point x="53" y="995" type="line"/>
      <point x="169" y="995" type="line"/>
      <point x="333" y="1481" type="line"/>
      <point x="143" y="1481" type="line"/>
    </contour>
    <contour>
      <point x="370" y="995" type="line"/>
      <point x="486" y="995" type="line"/>
      <point x="652" y="1481" type="line"/>
      <point x="461" y="1481" type="line"/>
    </contour>
  </outline>
</glyph>
<glyph name="guilsinglleft" format="1">
  <advance width="510"/>
  <unicode hex="2039"/>
  <outline>
    <contour>
      <point x="506" y="161" type="curve"/>
      <point x="506" y="349" type="line"/>
      <point x="149" y="582" type="line"/>
      <point x="506" y="818" type="line"/>
      <point x="506" y="1019" type="line"/>
      <point x="506" y="1019"/>
      <point x="100" y="719"/>
      <point x="-3" y="634" type="curve"/>
      <point x="-3" y="533" type="line"/>
      <point x="99" y="457"/>
      <point x="506" y="161"/>
    </contour>
  </outline>
</glyph>
<glyph name="fraction" format="1">
  <advance width="855"/>
  <unicode hex="2044"/>
  <outline>
    <contour>
      <point x="-7" y="0" type="line"/>
      <point x="161" y="0" type="line"/>
      <point x="861" y="1429" type="line"/>
      <point x="697" y="1429" type="line"/>
    </contour>
  </outline>
</glyph>
<glyph name="Euro" format="1">
  <advance width="1245"/>
  <unicode hex="20AC"/>
  <outline>
    <contour>
      <point x="840" y="-23" type="curve" smooth="yes"/>
      <point x="943" y="-23"/>
      <point x="1115" y="0"/>
      <point x="1240" y="115" type="curve"/>
      <point x="1240" y="346" type="line"/>
      <point x="1160" y="346" type="line"/>
      <point x="1127" y="121"/>
      <point x="900" y="116"/>
      <point x="811" y="116" type="curve"/>
      <point x="510" y="116"/>
      <point x="359" y="331"/>
      <point x="323" y="581" type="curve"/>
      <point x="996" y="581" type="line"/>
      <point x="1023" y="686" type="line"/>
      <point x="312" y="686" type="line"/>
      <point x="311" y="694"/>
      <point x="310" y="706"/>
      <point x="310" y="721" type="curve" smooth="yes"/>
      <point x="310" y="759"/>
      <point x="313" y="810"/>
      <point x="314" y="819" type="curve"/>
      <point x="1039" y="819" type="line"/>
      <point x="1067" y="921" type="line"/>
      <point x="326" y="921" type="line"/>
      <point x="385" y="1299"/>
      <point x="635" y="1378"/>
      <point x="803" y="1378" type="curve" smooth="yes"/>
      <point x="992" y="1378"/>
      <point x="1118" y="1295"/>
      <point x="1178" y="1134" type="curve"/>
      <point x="1240" y="1134" type="line"/>
      <point x="1240" y="1364" type="line"/>
      <point x="1121" y="1471"/>
      <point x="971" y="1503"/>
      <point x="830" y="1503" type="curve" smooth="yes"/>
      <point x="495" y="1503"/>
      <point x="236" y="1334"/>
      <point x="156" y="921" type="curve"/>
      <point x="12" y="921" type="line"/>
      <point x="-5" y="819" type="line"/>
      <point x="150" y="819" type="line"/>
      <point x="150" y="819"/>
      <point x="148" y="790"/>
      <point x="148" y="753" type="curve" smooth="yes"/>
      <point x="148" y="734"/>
      <point x="148" y="710"/>
      <point x="150" y="686" type="curve"/>
      <point x="21" y="686" type="line"/>
      <point x="-7" y="581" type="line"/>
      <point x="155" y="581" type="line"/>
      <point x="235" y="175"/>
      <point x="459" y="-23"/>
    </contour>
  </outline>
</glyph>
<glyph name="trademark" format="1">
  <advance width="1502"/>
  <unicode hex="2122"/>
  <outline>
    <contour>
      <point x="684" y="770" type="line"/>
      <point x="796" y="770" type="line"/>
      <point x="796" y="1371" type="line"/>
      <point x="801" y="1371" type="line"/>
      <point x="1004" y="908" type="line"/>
      <point x="1091" y="908" type="line"/>
      <point x="1287" y="1367" type="line"/>
      <point x="1293" y="1367" type="line"/>
      <point x="1293" y="770" type="line"/>
      <point x="1409" y="770" type="line"/>
      <point x="1409" y="1481" type="line"/>
      <point x="1238" y="1481" type="line"/>
      <point x="1049" y="1036" type="line"/>
      <point x="865" y="1481" type="line"/>
      <point x="684" y="1481" type="line"/>
    </contour>
    <contour>
      <point x="274" y="770" type="line"/>
      <point x="381" y="770" type="line"/>
      <point x="381" y="1392" type="line"/>
      <point x="574" y="1392" type="line"/>
      <point x="574" y="1481" type="line"/>
      <point x="81" y="1481" type="line"/>
      <point x="81" y="1392" type="line"/>
      <point x="274" y="1392" type="line"/>
    </contour>
  </outline>
</glyph>
<glyph name="minus" format="1">
  <advance width="1172"/>
  <unicode hex="2212"/>
  <outline>
    <contour>
      <point x="99" y="411" type="line"/>
      <point x="1073" y="411" type="line"/>
      <point x="1073" y="561" type="line"/>
      <point x="99" y="561" type="line"/>
    </contour>
  </outline>
</glyph>
<glyph name="approxequal" format="1">
  <advance width="1044"/>
  <unicode hex="2248"/>
  <outline>
    <contour>
      <point x="195" y="221" type="line"/>
      <point x="212" y="310"/>
      <point x="254" y="368"/>
      <point x="336" y="368" type="curve" smooth="yes"/>
      <point x="373" y="368"/>
      <point x="422" y="344"/>
      <point x="490" y="306" type="curve" smooth="yes"/>
      <point x="585" y="254"/>
      <point x="657" y="227"/>
      <point x="722" y="227" type="curve" smooth="yes"/>
      <point x="882" y="227"/>
      <point x="955" y="306"/>
      <point x="978" y="474" type="curve"/>
      <point x="851" y="496" type="line"/>
      <point x="842" y="413"/>
      <point x="796" y="372"/>
      <point x="722" y="361" type="curve" smooth="yes"/>
      <point x="685.2" y="351.8"/>
      <point x="620.926829268" y="379.365853659"/>
      <point x="548" y="422" type="curve"/>
      <point x="478" y="461"/>
      <point x="406" y="493"/>
      <point x="327" y="493" type="curve" smooth="yes"/>
      <point x="168" y="493"/>
      <point x="89" y="416"/>
      <point x="66" y="242" type="curve"/>
    </contour>
    <contour>
      <point x="195" y="608" type="line"/>
      <point x="212" y="695"/>
      <point x="254" y="751"/>
      <point x="336" y="751" type="curve" smooth="yes"/>
      <point x="374" y="751"/>
      <point x="424" y="728"/>
      <point x="490" y="691" type="curve"/>
      <point x="583" y="637"/>
      <point x="656" y="611"/>
      <point x="723" y="611" type="curve" smooth="yes"/>
      <point x="881" y="611"/>
      <point x="955" y="690"/>
      <point x="978" y="858" type="curve"/>
      <point x="851" y="880" type="line"/>
      <point x="840" y="795"/>
      <point x="793" y="746"/>
      <point x="714" y="744" type="curve" smooth="yes"/>
      <point x="714" y="744"/>
      <point x="614.0" y="767.0"/>
      <point x="548" y="805" type="curve" smooth="yes"/>
      <point x="479" y="845"/>
      <point x="405" y="876"/>
      <point x="328" y="876" type="curve" smooth="yes"/>
      <point x="168" y="876"/>
      <point x="89" y="802"/>
      <point x="66" y="629" type="curve"/>
    </contour>
  </outline>
</glyph>
<glyph name="notequal" format="1">
  <advance width="1095"/>
  <unicode hex="2260"/>
  <outline>
    <contour>
      <point x="210" y="38" type="line"/>
      <point x="340" y="38" type="line"/>
      <point x="475" y="299" type="line"/>
      <point x="1001" y="299" type="line"/>
      <point x="992" y="404" type="line"/>
      <point x="529" y="404" type="line"/>
      <point x="676" y="690" type="line"/>
      <point x="1001" y="690" type="line"/>
      <point x="1001" y="797" type="line"/>
      <point x="721" y="797" type="line"/>
      <point x="857" y="1053" type="line"/>
      <point x="735" y="1053" type="line"/>
      <point x="595" y="797" type="line"/>
      <point x="99" y="797" type="line"/>
      <point x="99" y="690" type="line"/>
      <point x="546" y="690" type="line"/>
      <point x="402" y="404" type="line"/>
      <point x="90" y="404" type="line"/>
      <point x="99" y="299" type="line"/>
      <point x="346" y="299" type="line"/>
    </contour>
  </outline>
</glyph>
<glyph name="lessequal" format="1">
  <advance width="1087"/>
  <unicode hex="2264"/>
  <outline>
    <contour>
      <point x="981" y="220" type="line"/>
      <point x="981" y="411" type="line"/>
      <point x="320" y="680" type="line"/>
      <point x="981" y="959" type="line"/>
      <point x="981" y="1151" type="line"/>
      <point x="108" y="755" type="line"/>
      <point x="108" y="605" type="line"/>
    </contour>
    <contour>
      <point x="91" y="1" type="line"/>
      <point x="993" y="1" type="line"/>
      <point x="993" y="168" type="line"/>
      <point x="91" y="168" type="line"/>
    </contour>
  </outline>
</glyph>
<glyph name="lozenge" format="1">
  <advance width="993"/>
  <unicode hex="25CA"/>
  <outline>
    <contour>
      <point x="447" y="-30" type="line"/>
      <point x="539" y="-30" type="line"/>
      <point x="926" y="672" type="line"/>
      <point x="551" y="1373" type="line"/>
      <point x="451" y="1373" type="line"/>
      <point x="67" y="670" type="line"/>
    </contour>
    <contour>
      <point x="494" y="93" type="curve"/>
      <point x="190" y="674" type="line"/>
      <point x="192" y="674"/>
      <point x="499" y="1251"/>
      <point x="499" y="1252" type="curve"/>
      <point x="500" y="1251"/>
      <point x="803" y="669"/>
      <point x="803" y="669" type="curve" smooth="yes"/>
      <point x="803" y="667"/>
      <point x="494" y="90"/>
    </contour>
  </outline>
</glyph>
<glyph name="f_i" format="1">
  <advance width="1147"/>
  <outline>
    <contour>
      <point x="204" y="0" type="line"/>
      <point x="381" y="0" type="line"/>
      <point x="381" y="908" type="line"/>
      <point x="803" y="908" type="line"/>
      <point x="803" y="0" type="line"/>
      <point x="982" y="0" type="line"/>
      <point x="982" y="1032" type="line"/>
      <point x="373" y="1032" type="line"/>
      <point x="373" y="1259"/>
      <point x="419" y="1294"/>
      <point x="567" y="1294" type="curve" smooth="yes"/>
      <point x="605" y="1294"/>
      <point x="666" y="1283"/>
      <point x="666" y="1283" type="curve"/>
      <point x="666" y="1421" type="line"/>
      <point x="612" y="1427"/>
      <point x="612" y="1432"/>
      <point x="538" y="1432" type="curve" smooth="yes"/>
      <point x="272" y="1432"/>
      <point x="204" y="1319"/>
      <point x="204" y="1069" type="curve" smooth="yes"/>
      <point x="204" y="1032" type="line"/>
      <point x="23" y="1032" type="line"/>
      <point x="23" y="908" type="line"/>
      <point x="204" y="908" type="line"/>
    </contour>
    <contour>
      <point x="899" y="1189" type="curve" smooth="yes"/>
      <point x="982" y="1189"/>
      <point x="1024" y="1249"/>
      <point x="1024" y="1308" type="curve" smooth="yes"/>
      <point x="1024" y="1368"/>
      <point x="981" y="1428"/>
      <point x="899" y="1428" type="curve" smooth="yes"/>
      <point x="814" y="1428"/>
      <point x="773" y="1369"/>
      <point x="773" y="1308" type="curve" smooth="yes"/>
      <point x="773" y="1249"/>
      <point x="816" y="1189"/>
    </contour>
  </outline>
</glyph>
<glyph name="f_l" format="1">
  <advance width="1251"/>
  <outline>
    <contour>
      <point x="1136" y="-9" type="curve" smooth="yes"/>
      <point x="1218" y="-9" type="line"/>
      <point x="1218" y="137" type="line"/>
      <point x="1028" y="137"/>
      <point x="997" y="149"/>
      <point x="997" y="299" type="curve" smooth="yes"/>
      <point x="997" y="1402" type="line"/>
      <point x="997" y="1402"/>
      <point x="730" y="1432"/>
      <point x="576" y="1432" type="curve" smooth="yes"/>
      <point x="310" y="1432"/>
      <point x="204" y="1319"/>
      <point x="204" y="1069" type="curve" smooth="yes"/>
      <point x="204" y="1032" type="line"/>
      <point x="23" y="1032" type="line"/>
      <point x="23" y="908" type="line"/>
      <point x="204" y="908" type="line"/>
      <point x="204" y="0" type="line"/>
      <point x="381" y="0" type="line"/>
      <point x="381" y="908" type="line"/>
      <point x="659" y="908" type="line"/>
      <point x="659" y="1032" type="line"/>
      <point x="373" y="1032" type="line"/>
      <point x="373" y="1259"/>
      <point x="429" y="1302"/>
      <point x="603" y="1302" type="curve" smooth="yes"/>
      <point x="641" y="1302"/>
      <point x="820" y="1290"/>
      <point x="820" y="1290" type="curve"/>
      <point x="820" y="297" type="line" smooth="yes"/>
      <point x="820" y="113"/>
      <point x="826" y="-9"/>
    </contour>
  </outline>
</glyph>
<glyph name="three.superior" format="1">
  <advance width="695"/>
  <outline>
    <contour>
      <point x="317" y="545" type="curve" smooth="yes"/>
      <point x="514" y="545"/>
      <point x="630" y="643"/>
      <point x="630" y="784" type="curve" smooth="yes"/>
      <point x="630" y="894"/>
      <point x="543" y="965"/>
      <point x="468" y="988" type="curve"/>
      <point x="535" y="1018"/>
      <point x="601" y="1064"/>
      <point x="601" y="1168" type="curve" smooth="yes"/>
      <point x="601" y="1280"/>
      <point x="514" y="1382"/>
      <point x="313" y="1382" type="curve" smooth="yes"/>
      <point x="218" y="1382"/>
      <point x="123" y="1357"/>
      <point x="73" y="1321" type="curve"/>
      <point x="73" y="1226" type="line"/>
      <point x="105" y="1226" type="line"/>
      <point x="105" y="1226"/>
      <point x="176" y="1280"/>
      <point x="298" y="1280" type="curve" smooth="yes"/>
      <point x="413" y="1280"/>
      <point x="468" y="1235"/>
      <point x="468" y="1168" type="curve" smooth="yes"/>
      <point x="468" y="1092"/>
      <point x="427" y="1032"/>
      <point x="284" y="1032" type="curve" smooth="yes"/>
      <point x="218" y="1032" type="line"/>
      <point x="218" y="948" type="line"/>
      <point x="284" y="948" type="line" smooth="yes"/>
      <point x="440" y="948"/>
      <point x="499" y="860"/>
      <point x="499" y="784" type="curve" smooth="yes"/>
      <point x="499" y="695"/>
      <point x="428" y="645"/>
      <point x="303" y="645" type="curve" smooth="yes"/>
      <point x="155" y="645"/>
      <point x="105" y="704"/>
      <point x="105" y="704" type="curve"/>
      <point x="73" y="704" type="line"/>
      <point x="73" y="607" type="line"/>
      <point x="107" y="584"/>
      <point x="195" y="545"/>
    </contour>
  </outline>
</glyph>
<glyph name="two.superior" format="1">
  <advance width="661"/>
  <outline>
    <contour>
      <point x="86" y="553" type="line"/>
      <point x="571" y="553" type="line"/>
      <point x="571" y="653" type="line"/>
      <point x="236" y="653" type="line"/>
      <point x="431" y="846"/>
      <point x="568" y="996"/>
      <point x="568" y="1157" type="curve" smooth="yes"/>
      <point x="568" y="1295"/>
      <point x="483" y="1383"/>
      <point x="324" y="1383" type="curve" smooth="yes"/>
      <point x="242" y="1383"/>
      <point x="134" y="1345"/>
      <point x="98" y="1309" type="curve"/>
      <point x="122" y="1214" type="line"/>
      <point x="153" y="1243"/>
      <point x="248" y="1281"/>
      <point x="305" y="1281" type="curve" smooth="yes"/>
      <point x="419" y="1281"/>
      <point x="451" y="1233"/>
      <point x="451" y="1154" type="curve" smooth="yes"/>
      <point x="451" y="1028"/>
      <point x="250" y="811"/>
      <point x="86" y="651" type="curve"/>
    </contour>
  </outline>
</glyph>
